<?xml version="1.0" encoding="UTF-8" standalone="no"?>
<!DOCTYPE svg PUBLIC "-//W3C//DTD SVG 1.1//EN" "http://www.w3.org/Graphics/SVG/1.1/DTD/svg11.dtd">
<svg width="100%" height="100%" viewBox="0 0 128 128" version="1.1" xmlns="http://www.w3.org/2000/svg" xmlns:xlink="http://www.w3.org/1999/xlink" xml:space="preserve" xmlns:serif="http://www.serif.com/" style="fill-rule:evenodd;clip-rule:evenodd;stroke-linejoin:round;stroke-miterlimit:2;">
    <g id="Icon" transform="matrix(1.00075,0,0,1.00075,1.36399,0.0239155)">
        <g id="Calander-with-Binds" serif:id="Calander with Binds">
            <g id="Calendar" transform="matrix(0.999252,0,0,0.999252,-1.36297,-0.0238976)">
                <path d="M76.403,20.347C76.485,20.354 76.567,20.362 76.649,20.372C77.348,20.452 78.037,20.615 78.697,20.858C79.982,21.33 81.151,22.102 82.095,23.095C82.965,24.011 83.64,25.11 84.059,26.303C84.281,26.934 84.431,27.59 84.507,28.255C84.542,28.558 84.559,28.862 84.565,29.167C84.615,37.018 84.615,44.869 84.565,52.72C84.559,53.026 84.542,53.33 84.507,53.633C84.431,54.298 84.281,54.954 84.059,55.584C83.64,56.778 82.965,57.877 82.095,58.792C81.151,59.785 79.982,60.557 78.697,61.03C78.037,61.272 77.348,61.436 76.649,61.516C76.347,61.551 76.043,61.568 75.739,61.574C67.913,61.623 60.087,61.623 52.261,61.574C51.957,61.568 51.653,61.551 51.351,61.516C50.652,61.436 49.963,61.272 49.303,61.03C48.153,60.607 47.094,59.944 46.208,59.097C45.192,58.124 44.408,56.914 43.941,55.584C43.719,54.954 43.569,54.298 43.493,53.633C43.458,53.33 43.441,53.026 43.435,52.72C43.385,44.869 43.385,37.018 43.435,29.167C43.441,28.862 43.458,28.558 43.493,28.255C43.569,27.59 43.719,26.934 43.941,26.303C44.408,24.974 45.192,23.763 46.208,22.791C47.094,21.943 48.153,21.281 49.303,20.858C49.963,20.615 50.652,20.452 51.351,20.372C51.425,20.363 51.499,20.356 51.573,20.349L51.573,24.615C51.573,25.667 52.427,26.521 53.479,26.521L57.291,26.521C58.343,26.521 59.197,25.667 59.197,24.615L59.197,21.762C59.197,20.944 59.859,20.281 60.677,20.279C62.937,20.275 65.197,20.275 67.457,20.28C68.188,20.281 68.78,20.874 68.78,21.605C68.78,22.88 68.78,24.615 68.78,24.615C68.78,25.667 69.634,26.521 70.686,26.521L74.497,26.521C75.549,26.521 76.403,25.667 76.403,24.615L76.403,20.347ZM82.796,32.871L45.204,32.871C45.174,39.48 45.181,46.089 45.224,52.698C45.229,52.972 45.246,53.246 45.281,53.519C45.344,54.019 45.46,54.513 45.627,54.988C46.001,56.051 46.629,57.02 47.442,57.798C48.151,58.476 48.998,59.007 49.918,59.345C50.446,59.539 50.996,59.67 51.554,59.734C51.797,59.762 52.04,59.775 52.284,59.78C60.094,59.829 67.906,59.829 75.716,59.78C75.96,59.775 76.203,59.762 76.446,59.734C77.004,59.67 77.554,59.539 78.082,59.345C79.11,58.967 80.046,58.349 80.801,57.554C81.497,56.822 82.037,55.943 82.373,54.988C82.55,54.484 82.67,53.96 82.73,53.429C82.758,53.186 82.772,52.942 82.776,52.698C82.819,46.089 82.826,39.48 82.796,32.871ZM49.694,51.708C50.681,51.708 51.482,52.512 51.482,53.502C51.482,54.492 50.681,55.296 49.694,55.296C48.707,55.296 47.905,54.492 47.905,53.502C47.905,52.512 48.707,51.708 49.694,51.708ZM71.153,51.708C72.14,51.708 72.941,52.512 72.941,53.502C72.941,54.492 72.14,55.296 71.153,55.296C70.166,55.296 69.365,54.492 69.365,53.502C69.365,52.512 70.166,51.708 71.153,51.708ZM56.847,51.708C57.834,51.708 58.635,52.512 58.635,53.502C58.635,54.492 57.834,55.296 56.847,55.296C55.86,55.296 55.059,54.492 55.059,53.502C55.059,52.512 55.86,51.708 56.847,51.708ZM78.306,51.708C79.293,51.708 80.095,52.512 80.095,53.502C80.095,54.492 79.293,55.296 78.306,55.296C77.319,55.296 76.518,54.492 76.518,53.502C76.518,52.512 77.319,51.708 78.306,51.708ZM64,51.708C64.987,51.708 65.788,52.512 65.788,53.502C65.788,54.492 64.987,55.296 64,55.296C63.013,55.296 62.212,54.492 62.212,53.502C62.212,52.512 63.013,51.708 64,51.708ZM74.625,45.46C74.693,45.737 74.73,46.027 74.73,46.326C74.73,48.306 73.127,49.914 71.153,49.914C69.179,49.914 67.577,48.306 67.577,46.326C67.577,44.345 69.179,42.738 71.153,42.738C71.306,42.738 71.457,42.747 71.604,42.766C70.796,43.387 70.465,44.416 70.867,45.264C71.339,46.262 72.647,46.634 73.786,46.095C74.121,45.936 74.404,45.717 74.625,45.46ZM56.847,44.532C57.834,44.532 58.635,45.336 58.635,46.326C58.635,47.316 57.834,48.12 56.847,48.12C55.86,48.12 55.059,47.316 55.059,46.326C55.059,45.336 55.86,44.532 56.847,44.532ZM78.306,44.532C79.293,44.532 80.095,45.336 80.095,46.326C80.095,47.316 79.293,48.12 78.306,48.12C77.319,48.12 76.518,47.316 76.518,46.326C76.518,45.336 77.319,44.532 78.306,44.532ZM49.694,44.532C50.681,44.532 51.482,45.336 51.482,46.326C51.482,47.316 50.681,48.12 49.694,48.12C48.707,48.12 47.905,47.316 47.905,46.326C47.905,45.336 48.707,44.532 49.694,44.532ZM64,44.532C64.987,44.532 65.788,45.336 65.788,46.326C65.788,47.316 64.987,48.12 64,48.12C63.013,48.12 62.212,47.316 62.212,46.326C62.212,45.336 63.013,44.532 64,44.532ZM56.847,37.356C57.834,37.356 58.635,38.16 58.635,39.15C58.635,40.14 57.834,40.944 56.847,40.944C55.86,40.944 55.059,40.14 55.059,39.15C55.059,38.16 55.86,37.356 56.847,37.356ZM78.306,37.356C79.293,37.356 80.095,38.16 80.095,39.15C80.095,40.14 79.293,40.944 78.306,40.944C77.319,40.944 76.518,40.14 76.518,39.15C76.518,38.16 77.319,37.356 78.306,37.356ZM71.153,37.356C72.14,37.356 72.941,38.16 72.941,39.15C72.941,40.14 72.14,40.944 71.153,40.944C70.166,40.944 69.365,40.14 69.365,39.15C69.365,38.16 70.166,37.356 71.153,37.356ZM49.694,37.356C50.681,37.356 51.482,38.16 51.482,39.15C51.482,40.14 50.681,40.944 49.694,40.944C48.707,40.944 47.905,40.14 47.905,39.15C47.905,38.16 48.707,37.356 49.694,37.356ZM64,37.356C64.987,37.356 65.788,38.16 65.788,39.15C65.788,40.14 64.987,40.944 64,40.944C63.013,40.944 62.212,40.14 62.212,39.15C62.212,38.16 63.013,37.356 64,37.356Z" style="fill:rgb(255,152,0);"/>
            </g>
            <g id="Calendar-Binds" serif:id="Calendar Binds" transform="matrix(0.95521,0,0,0.95521,1.45567,2.1196)">
                <g id="Calender-Bind-Right" serif:id="Calender Bind Right" transform="matrix(0.677083,0,0,0.558594,17.7481,7.26953)">
                    <path d="M58,14.818C58,13.815 57.328,13 56.5,13L53.5,13C52.672,13 52,13.815 52,14.818L52,27.182C52,28.185 52.672,29 53.5,29L56.5,29C57.328,29 58,28.185 58,27.182L58,14.818Z" style="fill:rgb(250,141,14);"/>
                </g>
                <g id="Calender-Bind-Right1" serif:id="Calender Bind Right" transform="matrix(0.677083,0,0,0.558594,35.7481,7.26953)">
                    <path d="M58,14.818C58,13.815 57.328,13 56.5,13L53.5,13C52.672,13 52,13.815 52,14.818L52,27.182C52,28.185 52.672,29 53.5,29L56.5,29C57.328,29 58,28.185 58,27.182L58,14.818Z" style="fill:rgb(250,141,14);"/>
                </g>
            </g>
        </g>
        <g id="Filter" transform="matrix(1.58364,0,0,1.58364,-79.9383,-87.5265)">
            <g transform="matrix(1,0,0,1,66,81.9466)">
                <path d="M29,23L19,23L7,9L41,9L29,23Z" style="fill:rgb(250,141,14);fill-rule:nonzero;"/>
            </g>
            <g transform="matrix(1,0,0,1,66,81.9925)">
                <g transform="matrix(1,0,0,1,0,-0.0906775)">
                    <path d="M29,38L19,44L19,23L29,23L29,38Z" style="fill:rgb(255,152,0);fill-rule:nonzero;"/>
                </g>
                <path d="M41.5,9L6.5,9C5.7,9 5,8.3 5,7.5C5,6.7 5.7,6 6.5,6L41.5,6C42.3,6 43,6.7 43,7.5C43,8.3 42.3,9 41.5,9Z" style="fill:rgb(255,152,0);fill-rule:nonzero;"/>
            </g>
        </g>
    </g>
</svg>
