<?xml version="1.0" encoding="UTF-8" standalone="no"?>
<!DOCTYPE svg PUBLIC "-//W3C//DTD SVG 1.1//EN" "http://www.w3.org/Graphics/SVG/1.1/DTD/svg11.dtd">
<svg width="100%" height="100%" viewBox="0 0 512 512" version="1.1" xmlns="http://www.w3.org/2000/svg" xmlns:xlink="http://www.w3.org/1999/xlink" xml:space="preserve" xmlns:serif="http://www.serif.com/" style="fill-rule:evenodd;clip-rule:evenodd;stroke-linejoin:round;stroke-miterlimit:2;">
    <path d="M362.6,192.9L345,174.8C344.3,174 343.2,173.6 342.2,173.6C341.1,173.6 340.1,174 339.4,174.8L217.4,297.7L173,253.3C172.2,252.5 171.2,252.1 170.2,252.1C169.2,252.1 168.2,252.5 167.4,253.3L149.6,271.1C148,272.7 148,275.2 149.6,276.8L205.6,332.8C209.2,336.4 213.6,338.5 217.3,338.5C222.6,338.5 227.2,334.6 228.9,333L229,333L362.7,198.6C364.1,196.9 364.1,194.4 362.6,192.9Z" style="fill:white;fill-rule:nonzero;"/>
</svg>
