<?xml version="1.0" encoding="UTF-8" standalone="no"?>
<!DOCTYPE svg PUBLIC "-//W3C//DTD SVG 1.1//EN" "http://www.w3.org/Graphics/SVG/1.1/DTD/svg11.dtd">
<svg width="100%" height="100%" viewBox="0 0 1920 200" version="1.1" xmlns="http://www.w3.org/2000/svg" xmlns:xlink="http://www.w3.org/1999/xlink" xml:space="preserve" xmlns:serif="http://www.serif.com/" style="fill-rule:evenodd;clip-rule:evenodd;stroke-linejoin:round;stroke-miterlimit:2;">
    <rect x="0" y="0" width="1920" height="200" style="fill:url(#_Linear1);"/>
    <g transform="matrix(0.940821,0,0,1,-29.651,26.3467)">
        <g id="Texts">
            <g>
                <g transform="matrix(50,0,0,50,66.9767,88.217)">
                    <path d="M0.279,-0L0.279,-0.303L0.003,-0.716L0.118,-0.716L0.259,-0.5C0.285,-0.46 0.31,-0.419 0.332,-0.379C0.354,-0.416 0.38,-0.458 0.41,-0.505L0.549,-0.716L0.659,-0.716L0.374,-0.303L0.374,-0L0.279,-0Z" style="fill-rule:nonzero;"/>
                </g>
                <g transform="matrix(50,0,0,50,95.7365,88.217)">
                    <path d="M0.033,-0.259C0.033,-0.355 0.06,-0.426 0.113,-0.473C0.158,-0.511 0.212,-0.53 0.276,-0.53C0.348,-0.53 0.406,-0.507 0.451,-0.46C0.496,-0.413 0.519,-0.349 0.519,-0.267C0.519,-0.2 0.509,-0.147 0.489,-0.109C0.469,-0.071 0.44,-0.041 0.402,-0.02C0.363,0.001 0.322,0.012 0.276,0.012C0.204,0.012 0.145,-0.012 0.1,-0.058C0.056,-0.105 0.033,-0.172 0.033,-0.259ZM0.124,-0.259C0.124,-0.193 0.138,-0.143 0.167,-0.11C0.196,-0.077 0.232,-0.061 0.276,-0.061C0.32,-0.061 0.356,-0.077 0.385,-0.11C0.414,-0.144 0.429,-0.194 0.429,-0.262C0.429,-0.326 0.414,-0.375 0.385,-0.408C0.356,-0.441 0.32,-0.458 0.276,-0.458C0.232,-0.458 0.196,-0.441 0.167,-0.408C0.138,-0.375 0.124,-0.326 0.124,-0.259Z" style="fill-rule:nonzero;"/>
                </g>
                <g transform="matrix(50,0,0,50,123.544,88.217)">
                    <path d="M0.406,-0L0.406,-0.076C0.365,-0.018 0.311,0.012 0.241,0.012C0.211,0.012 0.182,0.006 0.156,-0.006C0.129,-0.018 0.109,-0.032 0.096,-0.05C0.084,-0.068 0.075,-0.09 0.069,-0.115C0.066,-0.132 0.064,-0.16 0.064,-0.197L0.064,-0.519L0.152,-0.519L0.152,-0.231C0.152,-0.185 0.154,-0.154 0.157,-0.138C0.163,-0.115 0.174,-0.097 0.192,-0.084C0.21,-0.071 0.232,-0.064 0.259,-0.064C0.285,-0.064 0.31,-0.071 0.333,-0.084C0.356,-0.098 0.372,-0.116 0.382,-0.139C0.392,-0.163 0.396,-0.196 0.396,-0.241L0.396,-0.519L0.484,-0.519L0.484,-0L0.406,-0Z" style="fill-rule:nonzero;"/>
                </g>
                <g transform="matrix(50,0,0,50,165.243,88.217)">
                    <path d="M0.404,-0.19L0.491,-0.179C0.481,-0.119 0.457,-0.073 0.418,-0.039C0.379,-0.005 0.332,0.012 0.275,0.012C0.204,0.012 0.147,-0.011 0.104,-0.058C0.061,-0.104 0.039,-0.171 0.039,-0.257C0.039,-0.313 0.048,-0.362 0.067,-0.404C0.085,-0.446 0.114,-0.478 0.152,-0.499C0.19,-0.52 0.231,-0.53 0.275,-0.53C0.332,-0.53 0.378,-0.516 0.414,-0.488C0.449,-0.459 0.472,-0.419 0.482,-0.366L0.397,-0.353C0.389,-0.388 0.374,-0.414 0.354,-0.432C0.333,-0.449 0.308,-0.458 0.279,-0.458C0.235,-0.458 0.199,-0.442 0.171,-0.41C0.143,-0.379 0.129,-0.328 0.129,-0.26C0.129,-0.19 0.143,-0.139 0.169,-0.108C0.196,-0.076 0.231,-0.061 0.274,-0.061C0.308,-0.061 0.337,-0.071 0.36,-0.092C0.383,-0.113 0.398,-0.146 0.404,-0.19Z" style="fill-rule:nonzero;"/>
                </g>
                <g transform="matrix(50,0,0,50,190.243,88.217)">
                    <path d="M0.404,-0.064C0.372,-0.036 0.34,-0.017 0.31,-0.005C0.28,0.006 0.248,0.012 0.213,0.012C0.156,0.012 0.113,-0.002 0.082,-0.03C0.051,-0.058 0.036,-0.093 0.036,-0.137C0.036,-0.162 0.042,-0.185 0.053,-0.206C0.065,-0.227 0.08,-0.244 0.099,-0.257C0.118,-0.27 0.139,-0.279 0.162,-0.286C0.179,-0.29 0.205,-0.295 0.24,-0.299C0.311,-0.307 0.363,-0.317 0.397,-0.329C0.397,-0.341 0.397,-0.349 0.397,-0.352C0.397,-0.388 0.389,-0.413 0.373,-0.428C0.35,-0.448 0.317,-0.458 0.272,-0.458C0.231,-0.458 0.201,-0.45 0.181,-0.436C0.161,-0.421 0.147,-0.396 0.137,-0.359L0.051,-0.371C0.059,-0.407 0.072,-0.437 0.09,-0.46C0.108,-0.482 0.134,-0.5 0.167,-0.512C0.201,-0.524 0.241,-0.53 0.285,-0.53C0.329,-0.53 0.365,-0.525 0.393,-0.515C0.421,-0.504 0.441,-0.491 0.454,-0.475C0.467,-0.46 0.476,-0.44 0.481,-0.416C0.484,-0.401 0.486,-0.374 0.486,-0.334L0.486,-0.217C0.486,-0.136 0.488,-0.084 0.491,-0.062C0.495,-0.041 0.503,-0.02 0.514,-0L0.422,-0C0.413,-0.018 0.407,-0.04 0.404,-0.064ZM0.397,-0.26C0.365,-0.247 0.317,-0.236 0.253,-0.227C0.217,-0.222 0.192,-0.216 0.177,-0.209C0.162,-0.203 0.15,-0.193 0.142,-0.181C0.134,-0.168 0.13,-0.154 0.13,-0.139C0.13,-0.116 0.139,-0.096 0.156,-0.081C0.174,-0.065 0.2,-0.057 0.234,-0.057C0.268,-0.057 0.298,-0.065 0.325,-0.079C0.351,-0.094 0.37,-0.114 0.383,-0.14C0.392,-0.16 0.397,-0.189 0.397,-0.228L0.397,-0.26Z" style="fill-rule:nonzero;"/>
                </g>
                <g transform="matrix(50,0,0,50,218.051,88.217)">
                    <path d="M0.066,-0L0.066,-0.519L0.145,-0.519L0.145,-0.445C0.183,-0.502 0.238,-0.53 0.31,-0.53C0.341,-0.53 0.37,-0.525 0.396,-0.513C0.422,-0.502 0.442,-0.487 0.455,-0.469C0.468,-0.451 0.477,-0.429 0.482,-0.404C0.486,-0.388 0.487,-0.36 0.487,-0.319L0.487,-0L0.399,-0L0.399,-0.315C0.399,-0.351 0.396,-0.378 0.389,-0.396C0.382,-0.413 0.37,-0.428 0.353,-0.438C0.335,-0.449 0.315,-0.454 0.292,-0.454C0.254,-0.454 0.222,-0.442 0.195,-0.418C0.167,-0.395 0.154,-0.35 0.154,-0.283L0.154,-0L0.066,-0Z" style="fill-rule:nonzero;"/>
                </g>
                <g transform="matrix(50,0,0,50,259.75,88.217)">
                    <rect x="0.064" y="-0.716" width="0.088" height="0.716" style="fill-rule:nonzero;"/>
                </g>
                <g transform="matrix(50,0,0,50,270.859,88.217)">
                    <path d="M0.033,-0.259C0.033,-0.355 0.06,-0.426 0.113,-0.473C0.158,-0.511 0.212,-0.53 0.276,-0.53C0.348,-0.53 0.406,-0.507 0.451,-0.46C0.496,-0.413 0.519,-0.349 0.519,-0.267C0.519,-0.2 0.509,-0.147 0.489,-0.109C0.469,-0.071 0.44,-0.041 0.402,-0.02C0.363,0.001 0.322,0.012 0.276,0.012C0.204,0.012 0.145,-0.012 0.1,-0.058C0.056,-0.105 0.033,-0.172 0.033,-0.259ZM0.124,-0.259C0.124,-0.193 0.138,-0.143 0.167,-0.11C0.196,-0.077 0.232,-0.061 0.276,-0.061C0.32,-0.061 0.356,-0.077 0.385,-0.11C0.414,-0.144 0.429,-0.194 0.429,-0.262C0.429,-0.326 0.414,-0.375 0.385,-0.408C0.356,-0.441 0.32,-0.458 0.276,-0.458C0.232,-0.458 0.196,-0.441 0.167,-0.408C0.138,-0.375 0.124,-0.326 0.124,-0.259Z" style="fill-rule:nonzero;"/>
                </g>
                <g transform="matrix(50,0,0,50,298.666,88.217)">
                    <path d="M0.404,-0.19L0.491,-0.179C0.481,-0.119 0.457,-0.073 0.418,-0.039C0.379,-0.005 0.332,0.012 0.275,0.012C0.204,0.012 0.147,-0.011 0.104,-0.058C0.061,-0.104 0.039,-0.171 0.039,-0.257C0.039,-0.313 0.048,-0.362 0.067,-0.404C0.085,-0.446 0.114,-0.478 0.152,-0.499C0.19,-0.52 0.231,-0.53 0.275,-0.53C0.332,-0.53 0.378,-0.516 0.414,-0.488C0.449,-0.459 0.472,-0.419 0.482,-0.366L0.397,-0.353C0.389,-0.388 0.374,-0.414 0.354,-0.432C0.333,-0.449 0.308,-0.458 0.279,-0.458C0.235,-0.458 0.199,-0.442 0.171,-0.41C0.143,-0.379 0.129,-0.328 0.129,-0.26C0.129,-0.19 0.143,-0.139 0.169,-0.108C0.196,-0.076 0.231,-0.061 0.274,-0.061C0.308,-0.061 0.337,-0.071 0.36,-0.092C0.383,-0.113 0.398,-0.146 0.404,-0.19Z" style="fill-rule:nonzero;"/>
                </g>
                <g transform="matrix(50,0,0,50,323.666,88.217)">
                    <path d="M0.066,-0L0.066,-0.716L0.154,-0.716L0.154,-0.308L0.362,-0.519L0.476,-0.519L0.278,-0.326L0.496,-0L0.388,-0L0.216,-0.265L0.154,-0.206L0.154,-0L0.066,-0Z" style="fill-rule:nonzero;"/>
                </g>
                <g transform="matrix(50,0,0,50,362.558,88.217)">
                    <path d="M0.625,-0.48C0.654,-0.48 0.678,-0.47 0.698,-0.449C0.718,-0.428 0.728,-0.404 0.729,-0.376L0.729,-0.011C0.729,0.017 0.719,0.041 0.698,0.062C0.677,0.083 0.653,0.093 0.625,0.093L0.104,0.093C0.075,0.093 0.05,0.083 0.03,0.062C0.01,0.041 0,0.017 0,-0.011L0,-0.376C0,-0.405 0.01,-0.429 0.03,-0.449C0.05,-0.469 0.075,-0.479 0.104,-0.48L0.156,-0.48L0.156,-0.585C0.156,-0.642 0.177,-0.691 0.218,-0.732C0.259,-0.773 0.308,-0.793 0.365,-0.793C0.422,-0.793 0.471,-0.773 0.512,-0.732C0.553,-0.691 0.574,-0.642 0.573,-0.585L0.573,-0.48L0.625,-0.48ZM0.365,-0.049C0.384,-0.049 0.4,-0.056 0.413,-0.069C0.426,-0.082 0.433,-0.098 0.433,-0.116C0.433,-0.134 0.426,-0.15 0.413,-0.164C0.4,-0.178 0.384,-0.185 0.365,-0.184C0.346,-0.183 0.331,-0.177 0.318,-0.164C0.305,-0.151 0.299,-0.135 0.298,-0.116C0.297,-0.097 0.304,-0.081 0.318,-0.069C0.332,-0.057 0.348,-0.05 0.365,-0.049ZM0.469,-0.429L0.469,-0.585C0.469,-0.614 0.459,-0.639 0.438,-0.659C0.417,-0.679 0.393,-0.689 0.364,-0.689C0.335,-0.689 0.311,-0.679 0.291,-0.658C0.271,-0.637 0.261,-0.613 0.26,-0.585L0.26,-0.429L0.469,-0.429Z" style="fill:rgb(255,119,0);fill-rule:nonzero;"/>
                </g>
                <g transform="matrix(50,0,0,50,412.899,88.217)">
                    <path d="M0.062,0.2L0.052,0.117C0.071,0.122 0.088,0.125 0.103,0.125C0.122,0.125 0.138,0.122 0.149,0.115C0.161,0.109 0.171,0.1 0.178,0.088C0.184,0.079 0.193,0.057 0.205,0.022C0.207,0.018 0.209,0.01 0.213,0.001L0.016,-0.519L0.111,-0.519L0.219,-0.218C0.233,-0.18 0.245,-0.14 0.256,-0.098C0.266,-0.139 0.278,-0.178 0.292,-0.216L0.403,-0.519L0.491,-0.519L0.294,0.009C0.273,0.066 0.256,0.105 0.245,0.126C0.229,0.155 0.211,0.177 0.191,0.19C0.171,0.204 0.147,0.21 0.119,0.21C0.102,0.21 0.083,0.207 0.062,0.2Z" style="fill-rule:nonzero;"/>
                </g>
                <g transform="matrix(50,0,0,50,437.899,88.217)">
                    <path d="M0.033,-0.259C0.033,-0.355 0.06,-0.426 0.113,-0.473C0.158,-0.511 0.212,-0.53 0.276,-0.53C0.348,-0.53 0.406,-0.507 0.451,-0.46C0.496,-0.413 0.519,-0.349 0.519,-0.267C0.519,-0.2 0.509,-0.147 0.489,-0.109C0.469,-0.071 0.44,-0.041 0.402,-0.02C0.363,0.001 0.322,0.012 0.276,0.012C0.204,0.012 0.145,-0.012 0.1,-0.058C0.056,-0.105 0.033,-0.172 0.033,-0.259ZM0.124,-0.259C0.124,-0.193 0.138,-0.143 0.167,-0.11C0.196,-0.077 0.232,-0.061 0.276,-0.061C0.32,-0.061 0.356,-0.077 0.385,-0.11C0.414,-0.144 0.429,-0.194 0.429,-0.262C0.429,-0.326 0.414,-0.375 0.385,-0.408C0.356,-0.441 0.32,-0.458 0.276,-0.458C0.232,-0.458 0.196,-0.441 0.167,-0.408C0.138,-0.375 0.124,-0.326 0.124,-0.259Z" style="fill-rule:nonzero;"/>
                </g>
                <g transform="matrix(50,0,0,50,465.707,88.217)">
                    <path d="M0.406,-0L0.406,-0.076C0.365,-0.018 0.311,0.012 0.241,0.012C0.211,0.012 0.182,0.006 0.156,-0.006C0.129,-0.018 0.109,-0.032 0.096,-0.05C0.084,-0.068 0.075,-0.09 0.069,-0.115C0.066,-0.132 0.064,-0.16 0.064,-0.197L0.064,-0.519L0.152,-0.519L0.152,-0.231C0.152,-0.185 0.154,-0.154 0.157,-0.138C0.163,-0.115 0.174,-0.097 0.192,-0.084C0.21,-0.071 0.232,-0.064 0.259,-0.064C0.285,-0.064 0.31,-0.071 0.333,-0.084C0.356,-0.098 0.372,-0.116 0.382,-0.139C0.392,-0.163 0.396,-0.196 0.396,-0.241L0.396,-0.519L0.484,-0.519L0.484,-0L0.406,-0Z" style="fill-rule:nonzero;"/>
                </g>
                <g transform="matrix(50,0,0,50,493.515,88.217)">
                    <path d="M0.065,-0L0.065,-0.519L0.144,-0.519L0.144,-0.44C0.164,-0.477 0.183,-0.501 0.2,-0.513C0.217,-0.524 0.236,-0.53 0.256,-0.53C0.286,-0.53 0.316,-0.521 0.347,-0.502L0.316,-0.42C0.295,-0.433 0.273,-0.439 0.252,-0.439C0.233,-0.439 0.215,-0.434 0.2,-0.422C0.185,-0.411 0.174,-0.395 0.167,-0.374C0.158,-0.343 0.153,-0.309 0.153,-0.271L0.153,-0L0.065,-0Z" style="fill-rule:nonzero;"/>
                </g>
                <g transform="matrix(50,0,0,50,524.057,88.217)">
                    <path d="M0.089,-0L0.089,-0.451L0.011,-0.451L0.011,-0.519L0.089,-0.519L0.089,-0.569C0.089,-0.62 0.1,-0.66 0.123,-0.687C0.145,-0.714 0.18,-0.728 0.228,-0.728C0.26,-0.728 0.29,-0.724 0.317,-0.717L0.303,-0.643C0.286,-0.646 0.27,-0.647 0.256,-0.647C0.226,-0.647 0.205,-0.641 0.194,-0.629C0.183,-0.617 0.177,-0.591 0.177,-0.552L0.177,-0.519L0.278,-0.519L0.278,-0.451L0.177,-0.451L0.177,-0L0.089,-0ZM0.344,-0.615L0.344,-0.716L0.432,-0.716L0.432,-0.615L0.344,-0.615ZM0.344,-0L0.344,-0.519L0.432,-0.519L0.432,-0L0.344,-0Z" style="fill-rule:nonzero;"/>
                </g>
                <g transform="matrix(50,0,0,50,549.057,88.217)">
                    <rect x="0.064" y="-0.716" width="0.088" height="0.716" style="fill-rule:nonzero;"/>
                </g>
                <g transform="matrix(50,0,0,50,560.165,88.217)">
                    <path d="M0.258,-0.079L0.271,-0.001C0.246,0.004 0.224,0.007 0.204,0.007C0.172,0.007 0.147,0.002 0.13,-0.008C0.112,-0.018 0.1,-0.032 0.093,-0.048C0.086,-0.065 0.082,-0.099 0.082,-0.152L0.082,-0.45L0.018,-0.45L0.018,-0.519L0.082,-0.519L0.082,-0.647L0.169,-0.7L0.169,-0.519L0.258,-0.519L0.258,-0.45L0.169,-0.45L0.169,-0.147C0.169,-0.122 0.171,-0.106 0.174,-0.099C0.177,-0.091 0.182,-0.086 0.189,-0.082C0.196,-0.077 0.206,-0.075 0.219,-0.075C0.229,-0.075 0.242,-0.076 0.258,-0.079Z" style="fill-rule:nonzero;"/>
                </g>
                <g transform="matrix(50,0,0,50,574.057,88.217)">
                    <path d="M0.421,-0.167L0.512,-0.156C0.497,-0.103 0.471,-0.062 0.432,-0.032C0.393,-0.003 0.344,0.012 0.284,0.012C0.208,0.012 0.148,-0.012 0.103,-0.058C0.059,-0.105 0.037,-0.171 0.037,-0.255C0.037,-0.342 0.059,-0.41 0.104,-0.458C0.149,-0.506 0.207,-0.53 0.279,-0.53C0.348,-0.53 0.405,-0.507 0.449,-0.459C0.493,-0.412 0.515,-0.346 0.515,-0.26C0.515,-0.255 0.514,-0.247 0.514,-0.237L0.127,-0.237C0.131,-0.18 0.147,-0.136 0.176,-0.106C0.205,-0.076 0.241,-0.061 0.284,-0.061C0.316,-0.061 0.344,-0.069 0.367,-0.086C0.389,-0.103 0.408,-0.13 0.421,-0.167ZM0.132,-0.309L0.422,-0.309C0.418,-0.353 0.407,-0.385 0.389,-0.407C0.361,-0.441 0.324,-0.458 0.28,-0.458C0.239,-0.458 0.205,-0.444 0.178,-0.417C0.15,-0.39 0.135,-0.354 0.132,-0.309Z" style="fill-rule:nonzero;"/>
                </g>
                <g transform="matrix(50,0,0,50,601.864,88.217)">
                    <path d="M0.065,-0L0.065,-0.519L0.144,-0.519L0.144,-0.44C0.164,-0.477 0.183,-0.501 0.2,-0.513C0.217,-0.524 0.236,-0.53 0.256,-0.53C0.286,-0.53 0.316,-0.521 0.347,-0.502L0.316,-0.42C0.295,-0.433 0.273,-0.439 0.252,-0.439C0.233,-0.439 0.215,-0.434 0.2,-0.422C0.185,-0.411 0.174,-0.395 0.167,-0.374C0.158,-0.343 0.153,-0.309 0.153,-0.271L0.153,-0L0.065,-0Z" style="fill-rule:nonzero;"/>
                </g>
                <g transform="matrix(50,0,0,50,632.406,88.217)">
                    <path d="M0.031,-0.155L0.118,-0.168C0.123,-0.134 0.136,-0.107 0.158,-0.088C0.181,-0.07 0.212,-0.061 0.252,-0.061C0.292,-0.061 0.322,-0.069 0.342,-0.085C0.361,-0.102 0.371,-0.121 0.371,-0.143C0.371,-0.163 0.362,-0.179 0.345,-0.19C0.333,-0.198 0.303,-0.208 0.255,-0.22C0.191,-0.236 0.146,-0.25 0.121,-0.262C0.096,-0.274 0.078,-0.29 0.065,-0.311C0.052,-0.332 0.045,-0.355 0.045,-0.381C0.045,-0.404 0.051,-0.425 0.061,-0.445C0.072,-0.465 0.086,-0.481 0.104,-0.494C0.118,-0.504 0.137,-0.513 0.16,-0.52C0.184,-0.527 0.209,-0.53 0.236,-0.53C0.277,-0.53 0.313,-0.524 0.344,-0.513C0.374,-0.501 0.397,-0.485 0.412,-0.465C0.426,-0.445 0.436,-0.418 0.442,-0.385L0.356,-0.373C0.352,-0.4 0.341,-0.421 0.322,-0.436C0.303,-0.451 0.277,-0.458 0.243,-0.458C0.202,-0.458 0.174,-0.451 0.156,-0.438C0.139,-0.425 0.13,-0.409 0.13,-0.391C0.13,-0.38 0.134,-0.369 0.141,-0.36C0.148,-0.351 0.16,-0.343 0.175,-0.337C0.184,-0.334 0.209,-0.326 0.252,-0.314C0.315,-0.298 0.358,-0.284 0.383,-0.274C0.407,-0.263 0.426,-0.248 0.44,-0.228C0.454,-0.207 0.461,-0.182 0.461,-0.152C0.461,-0.123 0.453,-0.095 0.436,-0.07C0.419,-0.044 0.394,-0.024 0.362,-0.01C0.33,0.005 0.293,0.012 0.252,0.012C0.185,0.012 0.134,-0.002 0.098,-0.03C0.063,-0.058 0.041,-0.1 0.031,-0.155Z" style="fill-rule:nonzero;"/>
                </g>
                <g transform="matrix(50,0,0,50,657.406,88.217)">
                    <path d="M0.033,-0.259C0.033,-0.355 0.06,-0.426 0.113,-0.473C0.158,-0.511 0.212,-0.53 0.276,-0.53C0.348,-0.53 0.406,-0.507 0.451,-0.46C0.496,-0.413 0.519,-0.349 0.519,-0.267C0.519,-0.2 0.509,-0.147 0.489,-0.109C0.469,-0.071 0.44,-0.041 0.402,-0.02C0.363,0.001 0.322,0.012 0.276,0.012C0.204,0.012 0.145,-0.012 0.1,-0.058C0.056,-0.105 0.033,-0.172 0.033,-0.259ZM0.124,-0.259C0.124,-0.193 0.138,-0.143 0.167,-0.11C0.196,-0.077 0.232,-0.061 0.276,-0.061C0.32,-0.061 0.356,-0.077 0.385,-0.11C0.414,-0.144 0.429,-0.194 0.429,-0.262C0.429,-0.326 0.414,-0.375 0.385,-0.408C0.356,-0.441 0.32,-0.458 0.276,-0.458C0.232,-0.458 0.196,-0.441 0.167,-0.408C0.138,-0.375 0.124,-0.326 0.124,-0.259Z" style="fill-rule:nonzero;"/>
                </g>
                <g transform="matrix(50,0,0,50,699.105,88.217)">
                    <path d="M0.258,-0.079L0.271,-0.001C0.246,0.004 0.224,0.007 0.204,0.007C0.172,0.007 0.147,0.002 0.13,-0.008C0.112,-0.018 0.1,-0.032 0.093,-0.048C0.086,-0.065 0.082,-0.099 0.082,-0.152L0.082,-0.45L0.018,-0.45L0.018,-0.519L0.082,-0.519L0.082,-0.647L0.169,-0.7L0.169,-0.519L0.258,-0.519L0.258,-0.45L0.169,-0.45L0.169,-0.147C0.169,-0.122 0.171,-0.106 0.174,-0.099C0.177,-0.091 0.182,-0.086 0.189,-0.082C0.196,-0.077 0.206,-0.075 0.219,-0.075C0.229,-0.075 0.242,-0.076 0.258,-0.079Z" style="fill-rule:nonzero;"/>
                </g>
                <g transform="matrix(50,0,0,50,712.997,88.217)">
                    <path d="M0.066,-0L0.066,-0.716L0.154,-0.716L0.154,-0.459C0.195,-0.507 0.247,-0.53 0.309,-0.53C0.347,-0.53 0.381,-0.523 0.409,-0.508C0.438,-0.492 0.458,-0.472 0.47,-0.445C0.482,-0.418 0.488,-0.379 0.488,-0.329L0.488,-0L0.4,-0L0.4,-0.329C0.4,-0.373 0.391,-0.405 0.372,-0.425C0.353,-0.445 0.326,-0.455 0.291,-0.455C0.265,-0.455 0.24,-0.448 0.218,-0.434C0.195,-0.421 0.178,-0.403 0.168,-0.379C0.159,-0.356 0.154,-0.324 0.154,-0.284L0.154,-0L0.066,-0Z" style="fill-rule:nonzero;"/>
                </g>
                <g transform="matrix(50,0,0,50,740.805,88.217)">
                    <path d="M0.404,-0.064C0.372,-0.036 0.34,-0.017 0.31,-0.005C0.28,0.006 0.248,0.012 0.213,0.012C0.156,0.012 0.113,-0.002 0.082,-0.03C0.051,-0.058 0.036,-0.093 0.036,-0.137C0.036,-0.162 0.042,-0.185 0.053,-0.206C0.065,-0.227 0.08,-0.244 0.099,-0.257C0.118,-0.27 0.139,-0.279 0.162,-0.286C0.179,-0.29 0.205,-0.295 0.24,-0.299C0.311,-0.307 0.363,-0.317 0.397,-0.329C0.397,-0.341 0.397,-0.349 0.397,-0.352C0.397,-0.388 0.389,-0.413 0.373,-0.428C0.35,-0.448 0.317,-0.458 0.272,-0.458C0.231,-0.458 0.201,-0.45 0.181,-0.436C0.161,-0.421 0.147,-0.396 0.137,-0.359L0.051,-0.371C0.059,-0.407 0.072,-0.437 0.09,-0.46C0.108,-0.482 0.134,-0.5 0.167,-0.512C0.201,-0.524 0.241,-0.53 0.285,-0.53C0.329,-0.53 0.365,-0.525 0.393,-0.515C0.421,-0.504 0.441,-0.491 0.454,-0.475C0.467,-0.46 0.476,-0.44 0.481,-0.416C0.484,-0.401 0.486,-0.374 0.486,-0.334L0.486,-0.217C0.486,-0.136 0.488,-0.084 0.491,-0.062C0.495,-0.041 0.503,-0.02 0.514,-0L0.422,-0C0.413,-0.018 0.407,-0.04 0.404,-0.064ZM0.397,-0.26C0.365,-0.247 0.317,-0.236 0.253,-0.227C0.217,-0.222 0.192,-0.216 0.177,-0.209C0.162,-0.203 0.15,-0.193 0.142,-0.181C0.134,-0.168 0.13,-0.154 0.13,-0.139C0.13,-0.116 0.139,-0.096 0.156,-0.081C0.174,-0.065 0.2,-0.057 0.234,-0.057C0.268,-0.057 0.298,-0.065 0.325,-0.079C0.351,-0.094 0.37,-0.114 0.383,-0.14C0.392,-0.16 0.397,-0.189 0.397,-0.228L0.397,-0.26Z" style="fill-rule:nonzero;"/>
                </g>
                <g transform="matrix(50,0,0,50,768.612,88.217)">
                    <path d="M0.258,-0.079L0.271,-0.001C0.246,0.004 0.224,0.007 0.204,0.007C0.172,0.007 0.147,0.002 0.13,-0.008C0.112,-0.018 0.1,-0.032 0.093,-0.048C0.086,-0.065 0.082,-0.099 0.082,-0.152L0.082,-0.45L0.018,-0.45L0.018,-0.519L0.082,-0.519L0.082,-0.647L0.169,-0.7L0.169,-0.519L0.258,-0.519L0.258,-0.45L0.169,-0.45L0.169,-0.147C0.169,-0.122 0.171,-0.106 0.174,-0.099C0.177,-0.091 0.182,-0.086 0.189,-0.082C0.196,-0.077 0.206,-0.075 0.219,-0.075C0.229,-0.075 0.242,-0.076 0.258,-0.079Z" style="fill-rule:nonzero;"/>
                </g>
                <g transform="matrix(50,0,0,50,796.395,88.217)">
                    <path d="M0.066,-0.615L0.066,-0.716L0.154,-0.716L0.154,-0.615L0.066,-0.615ZM0.066,-0L0.066,-0.519L0.154,-0.519L0.154,-0L0.066,-0Z" style="fill-rule:nonzero;"/>
                </g>
                <g transform="matrix(50,0,0,50,807.504,88.217)">
                    <path d="M0.258,-0.079L0.271,-0.001C0.246,0.004 0.224,0.007 0.204,0.007C0.172,0.007 0.147,0.002 0.13,-0.008C0.112,-0.018 0.1,-0.032 0.093,-0.048C0.086,-0.065 0.082,-0.099 0.082,-0.152L0.082,-0.45L0.018,-0.45L0.018,-0.519L0.082,-0.519L0.082,-0.647L0.169,-0.7L0.169,-0.519L0.258,-0.519L0.258,-0.45L0.169,-0.45L0.169,-0.147C0.169,-0.122 0.171,-0.106 0.174,-0.099C0.177,-0.091 0.182,-0.086 0.189,-0.082C0.196,-0.077 0.206,-0.075 0.219,-0.075C0.229,-0.075 0.242,-0.076 0.258,-0.079Z" style="fill-rule:nonzero;"/>
                </g>
                <g transform="matrix(50,0,0,50,835.287,88.217)">
                    <path d="M0.05,0.043L0.135,0.056C0.139,0.082 0.149,0.101 0.165,0.113C0.187,0.13 0.217,0.138 0.254,0.138C0.295,0.138 0.326,0.13 0.349,0.113C0.371,0.097 0.386,0.074 0.394,0.045C0.398,0.027 0.4,-0.011 0.4,-0.068C0.361,-0.023 0.314,-0 0.256,-0C0.185,-0 0.13,-0.026 0.091,-0.077C0.052,-0.129 0.032,-0.19 0.032,-0.262C0.032,-0.312 0.041,-0.357 0.059,-0.399C0.077,-0.441 0.103,-0.473 0.137,-0.496C0.171,-0.519 0.211,-0.53 0.257,-0.53C0.318,-0.53 0.368,-0.506 0.408,-0.456L0.408,-0.519L0.489,-0.519L0.489,-0.07C0.489,0.01 0.481,0.068 0.465,0.101C0.448,0.135 0.422,0.162 0.386,0.181C0.351,0.201 0.307,0.21 0.255,0.21C0.193,0.21 0.143,0.197 0.105,0.169C0.067,0.141 0.049,0.099 0.05,0.043ZM0.123,-0.269C0.123,-0.201 0.136,-0.151 0.163,-0.12C0.19,-0.088 0.224,-0.073 0.265,-0.073C0.305,-0.073 0.339,-0.088 0.366,-0.119C0.394,-0.15 0.407,-0.199 0.407,-0.266C0.407,-0.329 0.393,-0.377 0.365,-0.409C0.337,-0.441 0.303,-0.458 0.263,-0.458C0.224,-0.458 0.191,-0.442 0.164,-0.41C0.136,-0.378 0.123,-0.331 0.123,-0.269Z" style="fill-rule:nonzero;"/>
                </g>
                <g transform="matrix(50,0,0,50,863.095,88.217)">
                    <path d="M0.421,-0.167L0.512,-0.156C0.497,-0.103 0.471,-0.062 0.432,-0.032C0.393,-0.003 0.344,0.012 0.284,0.012C0.208,0.012 0.148,-0.012 0.103,-0.058C0.059,-0.105 0.037,-0.171 0.037,-0.255C0.037,-0.342 0.059,-0.41 0.104,-0.458C0.149,-0.506 0.207,-0.53 0.279,-0.53C0.348,-0.53 0.405,-0.507 0.449,-0.459C0.493,-0.412 0.515,-0.346 0.515,-0.26C0.515,-0.255 0.514,-0.247 0.514,-0.237L0.127,-0.237C0.131,-0.18 0.147,-0.136 0.176,-0.106C0.205,-0.076 0.241,-0.061 0.284,-0.061C0.316,-0.061 0.344,-0.069 0.367,-0.086C0.389,-0.103 0.408,-0.13 0.421,-0.167ZM0.132,-0.309L0.422,-0.309C0.418,-0.353 0.407,-0.385 0.389,-0.407C0.361,-0.441 0.324,-0.458 0.28,-0.458C0.239,-0.458 0.205,-0.444 0.178,-0.417C0.15,-0.39 0.135,-0.354 0.132,-0.309Z" style="fill-rule:nonzero;"/>
                </g>
                <g transform="matrix(50,0,0,50,890.902,88.217)">
                    <path d="M0.258,-0.079L0.271,-0.001C0.246,0.004 0.224,0.007 0.204,0.007C0.172,0.007 0.147,0.002 0.13,-0.008C0.112,-0.018 0.1,-0.032 0.093,-0.048C0.086,-0.065 0.082,-0.099 0.082,-0.152L0.082,-0.45L0.018,-0.45L0.018,-0.519L0.082,-0.519L0.082,-0.647L0.169,-0.7L0.169,-0.519L0.258,-0.519L0.258,-0.45L0.169,-0.45L0.169,-0.147C0.169,-0.122 0.171,-0.106 0.174,-0.099C0.177,-0.091 0.182,-0.086 0.189,-0.082C0.196,-0.077 0.206,-0.075 0.219,-0.075C0.229,-0.075 0.242,-0.076 0.258,-0.079Z" style="fill-rule:nonzero;"/>
                </g>
                <g transform="matrix(50,0,0,50,904.794,88.217)">
                    <path d="M0.031,-0.155L0.118,-0.168C0.123,-0.134 0.136,-0.107 0.158,-0.088C0.181,-0.07 0.212,-0.061 0.252,-0.061C0.292,-0.061 0.322,-0.069 0.342,-0.085C0.361,-0.102 0.371,-0.121 0.371,-0.143C0.371,-0.163 0.362,-0.179 0.345,-0.19C0.333,-0.198 0.303,-0.208 0.255,-0.22C0.191,-0.236 0.146,-0.25 0.121,-0.262C0.096,-0.274 0.078,-0.29 0.065,-0.311C0.052,-0.332 0.045,-0.355 0.045,-0.381C0.045,-0.404 0.051,-0.425 0.061,-0.445C0.072,-0.465 0.086,-0.481 0.104,-0.494C0.118,-0.504 0.137,-0.513 0.16,-0.52C0.184,-0.527 0.209,-0.53 0.236,-0.53C0.277,-0.53 0.313,-0.524 0.344,-0.513C0.374,-0.501 0.397,-0.485 0.412,-0.465C0.426,-0.445 0.436,-0.418 0.442,-0.385L0.356,-0.373C0.352,-0.4 0.341,-0.421 0.322,-0.436C0.303,-0.451 0.277,-0.458 0.243,-0.458C0.202,-0.458 0.174,-0.451 0.156,-0.438C0.139,-0.425 0.13,-0.409 0.13,-0.391C0.13,-0.38 0.134,-0.369 0.141,-0.36C0.148,-0.351 0.16,-0.343 0.175,-0.337C0.184,-0.334 0.209,-0.326 0.252,-0.314C0.315,-0.298 0.358,-0.284 0.383,-0.274C0.407,-0.263 0.426,-0.248 0.44,-0.228C0.454,-0.207 0.461,-0.182 0.461,-0.152C0.461,-0.123 0.453,-0.095 0.436,-0.07C0.419,-0.044 0.394,-0.024 0.362,-0.01C0.33,0.005 0.293,0.012 0.252,0.012C0.185,0.012 0.134,-0.002 0.098,-0.03C0.063,-0.058 0.041,-0.1 0.031,-0.155Z" style="fill-rule:nonzero;"/>
                </g>
                <g transform="matrix(50,0,0,50,943.686,88.217)">
                    <path d="M0.404,-0.064C0.372,-0.036 0.34,-0.017 0.31,-0.005C0.28,0.006 0.248,0.012 0.213,0.012C0.156,0.012 0.113,-0.002 0.082,-0.03C0.051,-0.058 0.036,-0.093 0.036,-0.137C0.036,-0.162 0.042,-0.185 0.053,-0.206C0.065,-0.227 0.08,-0.244 0.099,-0.257C0.118,-0.27 0.139,-0.279 0.162,-0.286C0.179,-0.29 0.205,-0.295 0.24,-0.299C0.311,-0.307 0.363,-0.317 0.397,-0.329C0.397,-0.341 0.397,-0.349 0.397,-0.352C0.397,-0.388 0.389,-0.413 0.373,-0.428C0.35,-0.448 0.317,-0.458 0.272,-0.458C0.231,-0.458 0.201,-0.45 0.181,-0.436C0.161,-0.421 0.147,-0.396 0.137,-0.359L0.051,-0.371C0.059,-0.407 0.072,-0.437 0.09,-0.46C0.108,-0.482 0.134,-0.5 0.167,-0.512C0.201,-0.524 0.241,-0.53 0.285,-0.53C0.329,-0.53 0.365,-0.525 0.393,-0.515C0.421,-0.504 0.441,-0.491 0.454,-0.475C0.467,-0.46 0.476,-0.44 0.481,-0.416C0.484,-0.401 0.486,-0.374 0.486,-0.334L0.486,-0.217C0.486,-0.136 0.488,-0.084 0.491,-0.062C0.495,-0.041 0.503,-0.02 0.514,-0L0.422,-0C0.413,-0.018 0.407,-0.04 0.404,-0.064ZM0.397,-0.26C0.365,-0.247 0.317,-0.236 0.253,-0.227C0.217,-0.222 0.192,-0.216 0.177,-0.209C0.162,-0.203 0.15,-0.193 0.142,-0.181C0.134,-0.168 0.13,-0.154 0.13,-0.139C0.13,-0.116 0.139,-0.096 0.156,-0.081C0.174,-0.065 0.2,-0.057 0.234,-0.057C0.268,-0.057 0.298,-0.065 0.325,-0.079C0.351,-0.094 0.37,-0.114 0.383,-0.14C0.392,-0.16 0.397,-0.189 0.397,-0.228L0.397,-0.26Z" style="fill-rule:nonzero;"/>
                </g>
                <g transform="matrix(50,0,0,50,971.493,88.217)">
                    <path d="M0.066,0.199L0.066,-0.519L0.146,-0.519L0.146,-0.451C0.165,-0.478 0.186,-0.497 0.21,-0.51C0.234,-0.524 0.263,-0.53 0.296,-0.53C0.341,-0.53 0.38,-0.519 0.414,-0.496C0.447,-0.473 0.473,-0.441 0.49,-0.4C0.507,-0.358 0.516,-0.313 0.516,-0.263C0.516,-0.21 0.507,-0.162 0.488,-0.12C0.469,-0.077 0.441,-0.045 0.405,-0.022C0.368,0 0.33,0.012 0.29,0.012C0.261,0.012 0.234,0.006 0.211,-0.007C0.188,-0.019 0.169,-0.035 0.154,-0.054L0.154,0.199L0.066,0.199ZM0.146,-0.256C0.146,-0.19 0.159,-0.14 0.186,-0.108C0.213,-0.076 0.246,-0.061 0.284,-0.061C0.323,-0.061 0.357,-0.077 0.385,-0.11C0.412,-0.143 0.426,-0.194 0.426,-0.264C0.426,-0.33 0.413,-0.379 0.385,-0.412C0.358,-0.445 0.326,-0.461 0.288,-0.461C0.251,-0.461 0.218,-0.444 0.189,-0.409C0.16,-0.374 0.146,-0.323 0.146,-0.256Z" style="fill-rule:nonzero;"/>
                </g>
                <g transform="matrix(50,0,0,50,999.301,88.217)">
                    <path d="M0.066,0.199L0.066,-0.519L0.146,-0.519L0.146,-0.451C0.165,-0.478 0.186,-0.497 0.21,-0.51C0.234,-0.524 0.263,-0.53 0.296,-0.53C0.341,-0.53 0.38,-0.519 0.414,-0.496C0.447,-0.473 0.473,-0.441 0.49,-0.4C0.507,-0.358 0.516,-0.313 0.516,-0.263C0.516,-0.21 0.507,-0.162 0.488,-0.12C0.469,-0.077 0.441,-0.045 0.405,-0.022C0.368,0 0.33,0.012 0.29,0.012C0.261,0.012 0.234,0.006 0.211,-0.007C0.188,-0.019 0.169,-0.035 0.154,-0.054L0.154,0.199L0.066,0.199ZM0.146,-0.256C0.146,-0.19 0.159,-0.14 0.186,-0.108C0.213,-0.076 0.246,-0.061 0.284,-0.061C0.323,-0.061 0.357,-0.077 0.385,-0.11C0.412,-0.143 0.426,-0.194 0.426,-0.264C0.426,-0.33 0.413,-0.379 0.385,-0.412C0.358,-0.445 0.326,-0.461 0.288,-0.461C0.251,-0.461 0.218,-0.444 0.189,-0.409C0.16,-0.374 0.146,-0.323 0.146,-0.256Z" style="fill-rule:nonzero;"/>
                </g>
                <g transform="matrix(50,0,0,50,1027.11,88.217)">
                    <rect x="0.064" y="-0.716" width="0.088" height="0.716" style="fill-rule:nonzero;"/>
                </g>
                <g transform="matrix(50,0,0,50,1038.22,88.217)">
                    <path d="M0.066,-0.615L0.066,-0.716L0.154,-0.716L0.154,-0.615L0.066,-0.615ZM0.066,-0L0.066,-0.519L0.154,-0.519L0.154,-0L0.066,-0Z" style="fill-rule:nonzero;"/>
                </g>
                <g transform="matrix(50,0,0,50,1049.33,88.217)">
                    <path d="M0.421,-0.167L0.512,-0.156C0.497,-0.103 0.471,-0.062 0.432,-0.032C0.393,-0.003 0.344,0.012 0.284,0.012C0.208,0.012 0.148,-0.012 0.103,-0.058C0.059,-0.105 0.037,-0.171 0.037,-0.255C0.037,-0.342 0.059,-0.41 0.104,-0.458C0.149,-0.506 0.207,-0.53 0.279,-0.53C0.348,-0.53 0.405,-0.507 0.449,-0.459C0.493,-0.412 0.515,-0.346 0.515,-0.26C0.515,-0.255 0.514,-0.247 0.514,-0.237L0.127,-0.237C0.131,-0.18 0.147,-0.136 0.176,-0.106C0.205,-0.076 0.241,-0.061 0.284,-0.061C0.316,-0.061 0.344,-0.069 0.367,-0.086C0.389,-0.103 0.408,-0.13 0.421,-0.167ZM0.132,-0.309L0.422,-0.309C0.418,-0.353 0.407,-0.385 0.389,-0.407C0.361,-0.441 0.324,-0.458 0.28,-0.458C0.239,-0.458 0.205,-0.444 0.178,-0.417C0.15,-0.39 0.135,-0.354 0.132,-0.309Z" style="fill-rule:nonzero;"/>
                </g>
                <g transform="matrix(50,0,0,50,1077.13,88.217)">
                    <path d="M0.402,-0L0.402,-0.065C0.369,-0.014 0.321,0.012 0.257,0.012C0.216,0.012 0.178,0 0.143,-0.022C0.109,-0.045 0.082,-0.077 0.063,-0.118C0.044,-0.159 0.034,-0.206 0.034,-0.259C0.034,-0.311 0.043,-0.358 0.06,-0.4C0.077,-0.442 0.103,-0.474 0.138,-0.497C0.172,-0.519 0.211,-0.53 0.253,-0.53C0.285,-0.53 0.313,-0.524 0.337,-0.51C0.361,-0.497 0.381,-0.48 0.396,-0.459L0.396,-0.716L0.484,-0.716L0.484,-0L0.402,-0ZM0.125,-0.259C0.125,-0.192 0.139,-0.143 0.167,-0.11C0.194,-0.077 0.228,-0.061 0.266,-0.061C0.304,-0.061 0.337,-0.076 0.364,-0.108C0.39,-0.139 0.404,-0.187 0.404,-0.251C0.404,-0.322 0.39,-0.375 0.363,-0.408C0.335,-0.441 0.302,-0.458 0.262,-0.458C0.223,-0.458 0.19,-0.442 0.164,-0.41C0.138,-0.378 0.125,-0.327 0.125,-0.259Z" style="fill-rule:nonzero;"/>
                </g>
                <g transform="matrix(50,0,0,50,1118.83,88.217)">
                    <path d="M0.404,-0.064C0.372,-0.036 0.34,-0.017 0.31,-0.005C0.28,0.006 0.248,0.012 0.213,0.012C0.156,0.012 0.113,-0.002 0.082,-0.03C0.051,-0.058 0.036,-0.093 0.036,-0.137C0.036,-0.162 0.042,-0.185 0.053,-0.206C0.065,-0.227 0.08,-0.244 0.099,-0.257C0.118,-0.27 0.139,-0.279 0.162,-0.286C0.179,-0.29 0.205,-0.295 0.24,-0.299C0.311,-0.307 0.363,-0.317 0.397,-0.329C0.397,-0.341 0.397,-0.349 0.397,-0.352C0.397,-0.388 0.389,-0.413 0.373,-0.428C0.35,-0.448 0.317,-0.458 0.272,-0.458C0.231,-0.458 0.201,-0.45 0.181,-0.436C0.161,-0.421 0.147,-0.396 0.137,-0.359L0.051,-0.371C0.059,-0.407 0.072,-0.437 0.09,-0.46C0.108,-0.482 0.134,-0.5 0.167,-0.512C0.201,-0.524 0.241,-0.53 0.285,-0.53C0.329,-0.53 0.365,-0.525 0.393,-0.515C0.421,-0.504 0.441,-0.491 0.454,-0.475C0.467,-0.46 0.476,-0.44 0.481,-0.416C0.484,-0.401 0.486,-0.374 0.486,-0.334L0.486,-0.217C0.486,-0.136 0.488,-0.084 0.491,-0.062C0.495,-0.041 0.503,-0.02 0.514,-0L0.422,-0C0.413,-0.018 0.407,-0.04 0.404,-0.064ZM0.397,-0.26C0.365,-0.247 0.317,-0.236 0.253,-0.227C0.217,-0.222 0.192,-0.216 0.177,-0.209C0.162,-0.203 0.15,-0.193 0.142,-0.181C0.134,-0.168 0.13,-0.154 0.13,-0.139C0.13,-0.116 0.139,-0.096 0.156,-0.081C0.174,-0.065 0.2,-0.057 0.234,-0.057C0.268,-0.057 0.298,-0.065 0.325,-0.079C0.351,-0.094 0.37,-0.114 0.383,-0.14C0.392,-0.16 0.397,-0.189 0.397,-0.228L0.397,-0.26Z" style="fill-rule:nonzero;"/>
                </g>
                <g transform="matrix(50,0,0,50,1146.64,88.217)">
                    <path d="M0.406,-0L0.406,-0.076C0.365,-0.018 0.311,0.012 0.241,0.012C0.211,0.012 0.182,0.006 0.156,-0.006C0.129,-0.018 0.109,-0.032 0.096,-0.05C0.084,-0.068 0.075,-0.09 0.069,-0.115C0.066,-0.132 0.064,-0.16 0.064,-0.197L0.064,-0.519L0.152,-0.519L0.152,-0.231C0.152,-0.185 0.154,-0.154 0.157,-0.138C0.163,-0.115 0.174,-0.097 0.192,-0.084C0.21,-0.071 0.232,-0.064 0.259,-0.064C0.285,-0.064 0.31,-0.071 0.333,-0.084C0.356,-0.098 0.372,-0.116 0.382,-0.139C0.392,-0.163 0.396,-0.196 0.396,-0.241L0.396,-0.519L0.484,-0.519L0.484,-0L0.406,-0Z" style="fill-rule:nonzero;"/>
                </g>
                <g transform="matrix(50,0,0,50,1174.45,88.217)">
                    <path d="M0.258,-0.079L0.271,-0.001C0.246,0.004 0.224,0.007 0.204,0.007C0.172,0.007 0.147,0.002 0.13,-0.008C0.112,-0.018 0.1,-0.032 0.093,-0.048C0.086,-0.065 0.082,-0.099 0.082,-0.152L0.082,-0.45L0.018,-0.45L0.018,-0.519L0.082,-0.519L0.082,-0.647L0.169,-0.7L0.169,-0.519L0.258,-0.519L0.258,-0.45L0.169,-0.45L0.169,-0.147C0.169,-0.122 0.171,-0.106 0.174,-0.099C0.177,-0.091 0.182,-0.086 0.189,-0.082C0.196,-0.077 0.206,-0.075 0.219,-0.075C0.229,-0.075 0.242,-0.076 0.258,-0.079Z" style="fill-rule:nonzero;"/>
                </g>
                <g transform="matrix(50,0,0,50,1188.34,88.217)">
                    <path d="M0.033,-0.259C0.033,-0.355 0.06,-0.426 0.113,-0.473C0.158,-0.511 0.212,-0.53 0.276,-0.53C0.348,-0.53 0.406,-0.507 0.451,-0.46C0.496,-0.413 0.519,-0.349 0.519,-0.267C0.519,-0.2 0.509,-0.147 0.489,-0.109C0.469,-0.071 0.44,-0.041 0.402,-0.02C0.363,0.001 0.322,0.012 0.276,0.012C0.204,0.012 0.145,-0.012 0.1,-0.058C0.056,-0.105 0.033,-0.172 0.033,-0.259ZM0.124,-0.259C0.124,-0.193 0.138,-0.143 0.167,-0.11C0.196,-0.077 0.232,-0.061 0.276,-0.061C0.32,-0.061 0.356,-0.077 0.385,-0.11C0.414,-0.144 0.429,-0.194 0.429,-0.262C0.429,-0.326 0.414,-0.375 0.385,-0.408C0.356,-0.441 0.32,-0.458 0.276,-0.458C0.232,-0.458 0.196,-0.441 0.167,-0.408C0.138,-0.375 0.124,-0.326 0.124,-0.259Z" style="fill-rule:nonzero;"/>
                </g>
                <g transform="matrix(50,0,0,50,1216.15,88.217)">
                    <path d="M0.066,-0L0.066,-0.519L0.145,-0.519L0.145,-0.446C0.161,-0.471 0.182,-0.492 0.209,-0.507C0.236,-0.523 0.267,-0.53 0.302,-0.53C0.34,-0.53 0.372,-0.522 0.396,-0.506C0.421,-0.49 0.438,-0.468 0.448,-0.439C0.489,-0.5 0.543,-0.53 0.608,-0.53C0.66,-0.53 0.699,-0.516 0.727,-0.488C0.755,-0.459 0.769,-0.415 0.769,-0.356L0.769,-0L0.681,-0L0.681,-0.327C0.681,-0.362 0.678,-0.387 0.673,-0.403C0.667,-0.418 0.657,-0.431 0.642,-0.44C0.627,-0.449 0.609,-0.454 0.589,-0.454C0.552,-0.454 0.522,-0.442 0.498,-0.418C0.474,-0.393 0.462,-0.355 0.462,-0.301L0.462,-0L0.374,-0L0.374,-0.337C0.374,-0.376 0.367,-0.405 0.353,-0.425C0.338,-0.444 0.315,-0.454 0.282,-0.454C0.257,-0.454 0.235,-0.448 0.214,-0.435C0.193,-0.422 0.177,-0.403 0.168,-0.377C0.159,-0.352 0.154,-0.316 0.154,-0.269L0.154,-0L0.066,-0Z" style="fill-rule:nonzero;"/>
                </g>
                <g transform="matrix(50,0,0,50,1257.8,88.217)">
                    <path d="M0.404,-0.064C0.372,-0.036 0.34,-0.017 0.31,-0.005C0.28,0.006 0.248,0.012 0.213,0.012C0.156,0.012 0.113,-0.002 0.082,-0.03C0.051,-0.058 0.036,-0.093 0.036,-0.137C0.036,-0.162 0.042,-0.185 0.053,-0.206C0.065,-0.227 0.08,-0.244 0.099,-0.257C0.118,-0.27 0.139,-0.279 0.162,-0.286C0.179,-0.29 0.205,-0.295 0.24,-0.299C0.311,-0.307 0.363,-0.317 0.397,-0.329C0.397,-0.341 0.397,-0.349 0.397,-0.352C0.397,-0.388 0.389,-0.413 0.373,-0.428C0.35,-0.448 0.317,-0.458 0.272,-0.458C0.231,-0.458 0.201,-0.45 0.181,-0.436C0.161,-0.421 0.147,-0.396 0.137,-0.359L0.051,-0.371C0.059,-0.407 0.072,-0.437 0.09,-0.46C0.108,-0.482 0.134,-0.5 0.167,-0.512C0.201,-0.524 0.241,-0.53 0.285,-0.53C0.329,-0.53 0.365,-0.525 0.393,-0.515C0.421,-0.504 0.441,-0.491 0.454,-0.475C0.467,-0.46 0.476,-0.44 0.481,-0.416C0.484,-0.401 0.486,-0.374 0.486,-0.334L0.486,-0.217C0.486,-0.136 0.488,-0.084 0.491,-0.062C0.495,-0.041 0.503,-0.02 0.514,-0L0.422,-0C0.413,-0.018 0.407,-0.04 0.404,-0.064ZM0.397,-0.26C0.365,-0.247 0.317,-0.236 0.253,-0.227C0.217,-0.222 0.192,-0.216 0.177,-0.209C0.162,-0.203 0.15,-0.193 0.142,-0.181C0.134,-0.168 0.13,-0.154 0.13,-0.139C0.13,-0.116 0.139,-0.096 0.156,-0.081C0.174,-0.065 0.2,-0.057 0.234,-0.057C0.268,-0.057 0.298,-0.065 0.325,-0.079C0.351,-0.094 0.37,-0.114 0.383,-0.14C0.392,-0.16 0.397,-0.189 0.397,-0.228L0.397,-0.26Z" style="fill-rule:nonzero;"/>
                </g>
                <g transform="matrix(50,0,0,50,1285.6,88.217)">
                    <path d="M0.258,-0.079L0.271,-0.001C0.246,0.004 0.224,0.007 0.204,0.007C0.172,0.007 0.147,0.002 0.13,-0.008C0.112,-0.018 0.1,-0.032 0.093,-0.048C0.086,-0.065 0.082,-0.099 0.082,-0.152L0.082,-0.45L0.018,-0.45L0.018,-0.519L0.082,-0.519L0.082,-0.647L0.169,-0.7L0.169,-0.519L0.258,-0.519L0.258,-0.45L0.169,-0.45L0.169,-0.147C0.169,-0.122 0.171,-0.106 0.174,-0.099C0.177,-0.091 0.182,-0.086 0.189,-0.082C0.196,-0.077 0.206,-0.075 0.219,-0.075C0.229,-0.075 0.242,-0.076 0.258,-0.079Z" style="fill-rule:nonzero;"/>
                </g>
                <g transform="matrix(50,0,0,50,1299.5,88.217)">
                    <path d="M0.066,-0.615L0.066,-0.716L0.154,-0.716L0.154,-0.615L0.066,-0.615ZM0.066,-0L0.066,-0.519L0.154,-0.519L0.154,-0L0.066,-0Z" style="fill-rule:nonzero;"/>
                </g>
                <g transform="matrix(50,0,0,50,1310.6,88.217)">
                    <path d="M0.404,-0.19L0.491,-0.179C0.481,-0.119 0.457,-0.073 0.418,-0.039C0.379,-0.005 0.332,0.012 0.275,0.012C0.204,0.012 0.147,-0.011 0.104,-0.058C0.061,-0.104 0.039,-0.171 0.039,-0.257C0.039,-0.313 0.048,-0.362 0.067,-0.404C0.085,-0.446 0.114,-0.478 0.152,-0.499C0.19,-0.52 0.231,-0.53 0.275,-0.53C0.332,-0.53 0.378,-0.516 0.414,-0.488C0.449,-0.459 0.472,-0.419 0.482,-0.366L0.397,-0.353C0.389,-0.388 0.374,-0.414 0.354,-0.432C0.333,-0.449 0.308,-0.458 0.279,-0.458C0.235,-0.458 0.199,-0.442 0.171,-0.41C0.143,-0.379 0.129,-0.328 0.129,-0.26C0.129,-0.19 0.143,-0.139 0.169,-0.108C0.196,-0.076 0.231,-0.061 0.274,-0.061C0.308,-0.061 0.337,-0.071 0.36,-0.092C0.383,-0.113 0.398,-0.146 0.404,-0.19Z" style="fill-rule:nonzero;"/>
                </g>
                <g transform="matrix(50,0,0,50,1335.6,88.217)">
                    <path d="M0.404,-0.064C0.372,-0.036 0.34,-0.017 0.31,-0.005C0.28,0.006 0.248,0.012 0.213,0.012C0.156,0.012 0.113,-0.002 0.082,-0.03C0.051,-0.058 0.036,-0.093 0.036,-0.137C0.036,-0.162 0.042,-0.185 0.053,-0.206C0.065,-0.227 0.08,-0.244 0.099,-0.257C0.118,-0.27 0.139,-0.279 0.162,-0.286C0.179,-0.29 0.205,-0.295 0.24,-0.299C0.311,-0.307 0.363,-0.317 0.397,-0.329C0.397,-0.341 0.397,-0.349 0.397,-0.352C0.397,-0.388 0.389,-0.413 0.373,-0.428C0.35,-0.448 0.317,-0.458 0.272,-0.458C0.231,-0.458 0.201,-0.45 0.181,-0.436C0.161,-0.421 0.147,-0.396 0.137,-0.359L0.051,-0.371C0.059,-0.407 0.072,-0.437 0.09,-0.46C0.108,-0.482 0.134,-0.5 0.167,-0.512C0.201,-0.524 0.241,-0.53 0.285,-0.53C0.329,-0.53 0.365,-0.525 0.393,-0.515C0.421,-0.504 0.441,-0.491 0.454,-0.475C0.467,-0.46 0.476,-0.44 0.481,-0.416C0.484,-0.401 0.486,-0.374 0.486,-0.334L0.486,-0.217C0.486,-0.136 0.488,-0.084 0.491,-0.062C0.495,-0.041 0.503,-0.02 0.514,-0L0.422,-0C0.413,-0.018 0.407,-0.04 0.404,-0.064ZM0.397,-0.26C0.365,-0.247 0.317,-0.236 0.253,-0.227C0.217,-0.222 0.192,-0.216 0.177,-0.209C0.162,-0.203 0.15,-0.193 0.142,-0.181C0.134,-0.168 0.13,-0.154 0.13,-0.139C0.13,-0.116 0.139,-0.096 0.156,-0.081C0.174,-0.065 0.2,-0.057 0.234,-0.057C0.268,-0.057 0.298,-0.065 0.325,-0.079C0.351,-0.094 0.37,-0.114 0.383,-0.14C0.392,-0.16 0.397,-0.189 0.397,-0.228L0.397,-0.26Z" style="fill-rule:nonzero;"/>
                </g>
                <g transform="matrix(50,0,0,50,1363.41,88.217)">
                    <rect x="0.064" y="-0.716" width="0.088" height="0.716" style="fill-rule:nonzero;"/>
                </g>
                <g transform="matrix(50,0,0,50,1374.52,88.217)">
                    <rect x="0.064" y="-0.716" width="0.088" height="0.716" style="fill-rule:nonzero;"/>
                </g>
                <g transform="matrix(50,0,0,50,1385.63,88.217)">
                    <path d="M0.062,0.2L0.052,0.117C0.071,0.122 0.088,0.125 0.103,0.125C0.122,0.125 0.138,0.122 0.149,0.115C0.161,0.109 0.171,0.1 0.178,0.088C0.184,0.079 0.193,0.057 0.205,0.022C0.207,0.018 0.209,0.01 0.213,0.001L0.016,-0.519L0.111,-0.519L0.219,-0.218C0.233,-0.18 0.245,-0.14 0.256,-0.098C0.266,-0.139 0.278,-0.178 0.292,-0.216L0.403,-0.519L0.491,-0.519L0.294,0.009C0.273,0.066 0.256,0.105 0.245,0.126C0.229,0.155 0.211,0.177 0.191,0.19C0.171,0.204 0.147,0.21 0.119,0.21C0.102,0.21 0.083,0.207 0.062,0.2Z" style="fill-rule:nonzero;"/>
                </g>
                <g transform="matrix(50,0,0,50,1424.52,88.217)">
                    <path d="M0.404,-0.064C0.372,-0.036 0.34,-0.017 0.31,-0.005C0.28,0.006 0.248,0.012 0.213,0.012C0.156,0.012 0.113,-0.002 0.082,-0.03C0.051,-0.058 0.036,-0.093 0.036,-0.137C0.036,-0.162 0.042,-0.185 0.053,-0.206C0.065,-0.227 0.08,-0.244 0.099,-0.257C0.118,-0.27 0.139,-0.279 0.162,-0.286C0.179,-0.29 0.205,-0.295 0.24,-0.299C0.311,-0.307 0.363,-0.317 0.397,-0.329C0.397,-0.341 0.397,-0.349 0.397,-0.352C0.397,-0.388 0.389,-0.413 0.373,-0.428C0.35,-0.448 0.317,-0.458 0.272,-0.458C0.231,-0.458 0.201,-0.45 0.181,-0.436C0.161,-0.421 0.147,-0.396 0.137,-0.359L0.051,-0.371C0.059,-0.407 0.072,-0.437 0.09,-0.46C0.108,-0.482 0.134,-0.5 0.167,-0.512C0.201,-0.524 0.241,-0.53 0.285,-0.53C0.329,-0.53 0.365,-0.525 0.393,-0.515C0.421,-0.504 0.441,-0.491 0.454,-0.475C0.467,-0.46 0.476,-0.44 0.481,-0.416C0.484,-0.401 0.486,-0.374 0.486,-0.334L0.486,-0.217C0.486,-0.136 0.488,-0.084 0.491,-0.062C0.495,-0.041 0.503,-0.02 0.514,-0L0.422,-0C0.413,-0.018 0.407,-0.04 0.404,-0.064ZM0.397,-0.26C0.365,-0.247 0.317,-0.236 0.253,-0.227C0.217,-0.222 0.192,-0.216 0.177,-0.209C0.162,-0.203 0.15,-0.193 0.142,-0.181C0.134,-0.168 0.13,-0.154 0.13,-0.139C0.13,-0.116 0.139,-0.096 0.156,-0.081C0.174,-0.065 0.2,-0.057 0.234,-0.057C0.268,-0.057 0.298,-0.065 0.325,-0.079C0.351,-0.094 0.37,-0.114 0.383,-0.14C0.392,-0.16 0.397,-0.189 0.397,-0.228L0.397,-0.26Z" style="fill-rule:nonzero;"/>
                </g>
                <g transform="matrix(50,0,0,50,1452.33,88.217)">
                    <path d="M0.031,-0.155L0.118,-0.168C0.123,-0.134 0.136,-0.107 0.158,-0.088C0.181,-0.07 0.212,-0.061 0.252,-0.061C0.292,-0.061 0.322,-0.069 0.342,-0.085C0.361,-0.102 0.371,-0.121 0.371,-0.143C0.371,-0.163 0.362,-0.179 0.345,-0.19C0.333,-0.198 0.303,-0.208 0.255,-0.22C0.191,-0.236 0.146,-0.25 0.121,-0.262C0.096,-0.274 0.078,-0.29 0.065,-0.311C0.052,-0.332 0.045,-0.355 0.045,-0.381C0.045,-0.404 0.051,-0.425 0.061,-0.445C0.072,-0.465 0.086,-0.481 0.104,-0.494C0.118,-0.504 0.137,-0.513 0.16,-0.52C0.184,-0.527 0.209,-0.53 0.236,-0.53C0.277,-0.53 0.313,-0.524 0.344,-0.513C0.374,-0.501 0.397,-0.485 0.412,-0.465C0.426,-0.445 0.436,-0.418 0.442,-0.385L0.356,-0.373C0.352,-0.4 0.341,-0.421 0.322,-0.436C0.303,-0.451 0.277,-0.458 0.243,-0.458C0.202,-0.458 0.174,-0.451 0.156,-0.438C0.139,-0.425 0.13,-0.409 0.13,-0.391C0.13,-0.38 0.134,-0.369 0.141,-0.36C0.148,-0.351 0.16,-0.343 0.175,-0.337C0.184,-0.334 0.209,-0.326 0.252,-0.314C0.315,-0.298 0.358,-0.284 0.383,-0.274C0.407,-0.263 0.426,-0.248 0.44,-0.228C0.454,-0.207 0.461,-0.182 0.461,-0.152C0.461,-0.123 0.453,-0.095 0.436,-0.07C0.419,-0.044 0.394,-0.024 0.362,-0.01C0.33,0.005 0.293,0.012 0.252,0.012C0.185,0.012 0.134,-0.002 0.098,-0.03C0.063,-0.058 0.041,-0.1 0.031,-0.155Z" style="fill-rule:nonzero;"/>
                </g>
                <g transform="matrix(50,0,0,50,1491.22,88.217)">
                    <path d="M0.062,0.2L0.052,0.117C0.071,0.122 0.088,0.125 0.103,0.125C0.122,0.125 0.138,0.122 0.149,0.115C0.161,0.109 0.171,0.1 0.178,0.088C0.184,0.079 0.193,0.057 0.205,0.022C0.207,0.018 0.209,0.01 0.213,0.001L0.016,-0.519L0.111,-0.519L0.219,-0.218C0.233,-0.18 0.245,-0.14 0.256,-0.098C0.266,-0.139 0.278,-0.178 0.292,-0.216L0.403,-0.519L0.491,-0.519L0.294,0.009C0.273,0.066 0.256,0.105 0.245,0.126C0.229,0.155 0.211,0.177 0.191,0.19C0.171,0.204 0.147,0.21 0.119,0.21C0.102,0.21 0.083,0.207 0.062,0.2Z" style="fill-rule:nonzero;"/>
                </g>
                <g transform="matrix(50,0,0,50,1516.22,88.217)">
                    <path d="M0.033,-0.259C0.033,-0.355 0.06,-0.426 0.113,-0.473C0.158,-0.511 0.212,-0.53 0.276,-0.53C0.348,-0.53 0.406,-0.507 0.451,-0.46C0.496,-0.413 0.519,-0.349 0.519,-0.267C0.519,-0.2 0.509,-0.147 0.489,-0.109C0.469,-0.071 0.44,-0.041 0.402,-0.02C0.363,0.001 0.322,0.012 0.276,0.012C0.204,0.012 0.145,-0.012 0.1,-0.058C0.056,-0.105 0.033,-0.172 0.033,-0.259ZM0.124,-0.259C0.124,-0.193 0.138,-0.143 0.167,-0.11C0.196,-0.077 0.232,-0.061 0.276,-0.061C0.32,-0.061 0.356,-0.077 0.385,-0.11C0.414,-0.144 0.429,-0.194 0.429,-0.262C0.429,-0.326 0.414,-0.375 0.385,-0.408C0.356,-0.441 0.32,-0.458 0.276,-0.458C0.232,-0.458 0.196,-0.441 0.167,-0.408C0.138,-0.375 0.124,-0.326 0.124,-0.259Z" style="fill-rule:nonzero;"/>
                </g>
                <g transform="matrix(50,0,0,50,1544.03,88.217)">
                    <path d="M0.406,-0L0.406,-0.076C0.365,-0.018 0.311,0.012 0.241,0.012C0.211,0.012 0.182,0.006 0.156,-0.006C0.129,-0.018 0.109,-0.032 0.096,-0.05C0.084,-0.068 0.075,-0.09 0.069,-0.115C0.066,-0.132 0.064,-0.16 0.064,-0.197L0.064,-0.519L0.152,-0.519L0.152,-0.231C0.152,-0.185 0.154,-0.154 0.157,-0.138C0.163,-0.115 0.174,-0.097 0.192,-0.084C0.21,-0.071 0.232,-0.064 0.259,-0.064C0.285,-0.064 0.31,-0.071 0.333,-0.084C0.356,-0.098 0.372,-0.116 0.382,-0.139C0.392,-0.163 0.396,-0.196 0.396,-0.241L0.396,-0.519L0.484,-0.519L0.484,-0L0.406,-0Z" style="fill-rule:nonzero;"/>
                </g>
                <g transform="matrix(50,0,0,50,1585.73,88.217)">
                    <path d="M0.147,-0L0.065,-0L0.065,-0.716L0.153,-0.716L0.153,-0.46C0.19,-0.507 0.238,-0.53 0.295,-0.53C0.327,-0.53 0.358,-0.524 0.386,-0.511C0.414,-0.498 0.438,-0.48 0.456,-0.457C0.475,-0.434 0.489,-0.405 0.5,-0.373C0.51,-0.34 0.515,-0.305 0.515,-0.267C0.515,-0.178 0.493,-0.11 0.449,-0.061C0.405,-0.013 0.353,0.012 0.291,0.012C0.23,0.012 0.182,-0.014 0.147,-0.065L0.147,-0ZM0.146,-0.263C0.146,-0.201 0.154,-0.156 0.171,-0.128C0.199,-0.083 0.236,-0.061 0.284,-0.061C0.322,-0.061 0.355,-0.077 0.383,-0.111C0.411,-0.144 0.425,-0.194 0.425,-0.26C0.425,-0.327 0.412,-0.377 0.385,-0.41C0.358,-0.442 0.326,-0.458 0.288,-0.458C0.249,-0.458 0.216,-0.441 0.188,-0.408C0.16,-0.375 0.146,-0.326 0.146,-0.263Z" style="fill-rule:nonzero;"/>
                </g>
                <g transform="matrix(50,0,0,50,1613.53,88.217)">
                    <path d="M0.065,-0L0.065,-0.519L0.144,-0.519L0.144,-0.44C0.164,-0.477 0.183,-0.501 0.2,-0.513C0.217,-0.524 0.236,-0.53 0.256,-0.53C0.286,-0.53 0.316,-0.521 0.347,-0.502L0.316,-0.42C0.295,-0.433 0.273,-0.439 0.252,-0.439C0.233,-0.439 0.215,-0.434 0.2,-0.422C0.185,-0.411 0.174,-0.395 0.167,-0.374C0.158,-0.343 0.153,-0.309 0.153,-0.271L0.153,-0L0.065,-0Z" style="fill-rule:nonzero;"/>
                </g>
                <g transform="matrix(50,0,0,50,1630.18,88.217)">
                    <path d="M0.033,-0.259C0.033,-0.355 0.06,-0.426 0.113,-0.473C0.158,-0.511 0.212,-0.53 0.276,-0.53C0.348,-0.53 0.406,-0.507 0.451,-0.46C0.496,-0.413 0.519,-0.349 0.519,-0.267C0.519,-0.2 0.509,-0.147 0.489,-0.109C0.469,-0.071 0.44,-0.041 0.402,-0.02C0.363,0.001 0.322,0.012 0.276,0.012C0.204,0.012 0.145,-0.012 0.1,-0.058C0.056,-0.105 0.033,-0.172 0.033,-0.259ZM0.124,-0.259C0.124,-0.193 0.138,-0.143 0.167,-0.11C0.196,-0.077 0.232,-0.061 0.276,-0.061C0.32,-0.061 0.356,-0.077 0.385,-0.11C0.414,-0.144 0.429,-0.194 0.429,-0.262C0.429,-0.326 0.414,-0.375 0.385,-0.408C0.356,-0.441 0.32,-0.458 0.276,-0.458C0.232,-0.458 0.196,-0.441 0.167,-0.408C0.138,-0.375 0.124,-0.326 0.124,-0.259Z" style="fill-rule:nonzero;"/>
                </g>
                <g transform="matrix(50,0,0,50,1657.99,88.217)">
                    <path d="M0.162,-0L0.003,-0.519L0.094,-0.519L0.176,-0.219L0.207,-0.108C0.208,-0.113 0.217,-0.149 0.234,-0.215L0.316,-0.519L0.407,-0.519L0.484,-0.218L0.51,-0.119L0.54,-0.219L0.629,-0.519L0.714,-0.519L0.552,-0L0.461,-0L0.378,-0.311L0.358,-0.399L0.253,-0L0.162,-0Z" style="fill-rule:nonzero;"/>
                </g>
                <g transform="matrix(50,0,0,50,1694.1,88.217)">
                    <path d="M0.031,-0.155L0.118,-0.168C0.123,-0.134 0.136,-0.107 0.158,-0.088C0.181,-0.07 0.212,-0.061 0.252,-0.061C0.292,-0.061 0.322,-0.069 0.342,-0.085C0.361,-0.102 0.371,-0.121 0.371,-0.143C0.371,-0.163 0.362,-0.179 0.345,-0.19C0.333,-0.198 0.303,-0.208 0.255,-0.22C0.191,-0.236 0.146,-0.25 0.121,-0.262C0.096,-0.274 0.078,-0.29 0.065,-0.311C0.052,-0.332 0.045,-0.355 0.045,-0.381C0.045,-0.404 0.051,-0.425 0.061,-0.445C0.072,-0.465 0.086,-0.481 0.104,-0.494C0.118,-0.504 0.137,-0.513 0.16,-0.52C0.184,-0.527 0.209,-0.53 0.236,-0.53C0.277,-0.53 0.313,-0.524 0.344,-0.513C0.374,-0.501 0.397,-0.485 0.412,-0.465C0.426,-0.445 0.436,-0.418 0.442,-0.385L0.356,-0.373C0.352,-0.4 0.341,-0.421 0.322,-0.436C0.303,-0.451 0.277,-0.458 0.243,-0.458C0.202,-0.458 0.174,-0.451 0.156,-0.438C0.139,-0.425 0.13,-0.409 0.13,-0.391C0.13,-0.38 0.134,-0.369 0.141,-0.36C0.148,-0.351 0.16,-0.343 0.175,-0.337C0.184,-0.334 0.209,-0.326 0.252,-0.314C0.315,-0.298 0.358,-0.284 0.383,-0.274C0.407,-0.263 0.426,-0.248 0.44,-0.228C0.454,-0.207 0.461,-0.182 0.461,-0.152C0.461,-0.123 0.453,-0.095 0.436,-0.07C0.419,-0.044 0.394,-0.024 0.362,-0.01C0.33,0.005 0.293,0.012 0.252,0.012C0.185,0.012 0.134,-0.002 0.098,-0.03C0.063,-0.058 0.041,-0.1 0.031,-0.155Z" style="fill-rule:nonzero;"/>
                </g>
                <g transform="matrix(50,0,0,50,1719.1,88.217)">
                    <path d="M0.421,-0.167L0.512,-0.156C0.497,-0.103 0.471,-0.062 0.432,-0.032C0.393,-0.003 0.344,0.012 0.284,0.012C0.208,0.012 0.148,-0.012 0.103,-0.058C0.059,-0.105 0.037,-0.171 0.037,-0.255C0.037,-0.342 0.059,-0.41 0.104,-0.458C0.149,-0.506 0.207,-0.53 0.279,-0.53C0.348,-0.53 0.405,-0.507 0.449,-0.459C0.493,-0.412 0.515,-0.346 0.515,-0.26C0.515,-0.255 0.514,-0.247 0.514,-0.237L0.127,-0.237C0.131,-0.18 0.147,-0.136 0.176,-0.106C0.205,-0.076 0.241,-0.061 0.284,-0.061C0.316,-0.061 0.344,-0.069 0.367,-0.086C0.389,-0.103 0.408,-0.13 0.421,-0.167ZM0.132,-0.309L0.422,-0.309C0.418,-0.353 0.407,-0.385 0.389,-0.407C0.361,-0.441 0.324,-0.458 0.28,-0.458C0.239,-0.458 0.205,-0.444 0.178,-0.417C0.15,-0.39 0.135,-0.354 0.132,-0.309Z" style="fill-rule:nonzero;"/>
                </g>
                <g transform="matrix(50,0,0,50,1760.8,88.217)">
                    <path d="M0.258,-0.079L0.271,-0.001C0.246,0.004 0.224,0.007 0.204,0.007C0.172,0.007 0.147,0.002 0.13,-0.008C0.112,-0.018 0.1,-0.032 0.093,-0.048C0.086,-0.065 0.082,-0.099 0.082,-0.152L0.082,-0.45L0.018,-0.45L0.018,-0.519L0.082,-0.519L0.082,-0.647L0.169,-0.7L0.169,-0.519L0.258,-0.519L0.258,-0.45L0.169,-0.45L0.169,-0.147C0.169,-0.122 0.171,-0.106 0.174,-0.099C0.177,-0.091 0.182,-0.086 0.189,-0.082C0.196,-0.077 0.206,-0.075 0.219,-0.075C0.229,-0.075 0.242,-0.076 0.258,-0.079Z" style="fill-rule:nonzero;"/>
                </g>
                <g transform="matrix(50,0,0,50,1774.69,88.217)">
                    <path d="M0.066,-0L0.066,-0.716L0.154,-0.716L0.154,-0.459C0.195,-0.507 0.247,-0.53 0.309,-0.53C0.347,-0.53 0.381,-0.523 0.409,-0.508C0.438,-0.492 0.458,-0.472 0.47,-0.445C0.482,-0.418 0.488,-0.379 0.488,-0.329L0.488,-0L0.4,-0L0.4,-0.329C0.4,-0.373 0.391,-0.405 0.372,-0.425C0.353,-0.445 0.326,-0.455 0.291,-0.455C0.265,-0.455 0.24,-0.448 0.218,-0.434C0.195,-0.421 0.178,-0.403 0.168,-0.379C0.159,-0.356 0.154,-0.324 0.154,-0.284L0.154,-0L0.066,-0Z" style="fill-rule:nonzero;"/>
                </g>
                <g transform="matrix(50,0,0,50,1802.5,88.217)">
                    <path d="M0.421,-0.167L0.512,-0.156C0.497,-0.103 0.471,-0.062 0.432,-0.032C0.393,-0.003 0.344,0.012 0.284,0.012C0.208,0.012 0.148,-0.012 0.103,-0.058C0.059,-0.105 0.037,-0.171 0.037,-0.255C0.037,-0.342 0.059,-0.41 0.104,-0.458C0.149,-0.506 0.207,-0.53 0.279,-0.53C0.348,-0.53 0.405,-0.507 0.449,-0.459C0.493,-0.412 0.515,-0.346 0.515,-0.26C0.515,-0.255 0.514,-0.247 0.514,-0.237L0.127,-0.237C0.131,-0.18 0.147,-0.136 0.176,-0.106C0.205,-0.076 0.241,-0.061 0.284,-0.061C0.316,-0.061 0.344,-0.069 0.367,-0.086C0.389,-0.103 0.408,-0.13 0.421,-0.167ZM0.132,-0.309L0.422,-0.309C0.418,-0.353 0.407,-0.385 0.389,-0.407C0.361,-0.441 0.324,-0.458 0.28,-0.458C0.239,-0.458 0.205,-0.444 0.178,-0.417C0.15,-0.39 0.135,-0.354 0.132,-0.309Z" style="fill-rule:nonzero;"/>
                </g>
                <g transform="matrix(50,0,0,50,1844.2,88.217)">
                    <path d="M0.404,-0.19L0.491,-0.179C0.481,-0.119 0.457,-0.073 0.418,-0.039C0.379,-0.005 0.332,0.012 0.275,0.012C0.204,0.012 0.147,-0.011 0.104,-0.058C0.061,-0.104 0.039,-0.171 0.039,-0.257C0.039,-0.313 0.048,-0.362 0.067,-0.404C0.085,-0.446 0.114,-0.478 0.152,-0.499C0.19,-0.52 0.231,-0.53 0.275,-0.53C0.332,-0.53 0.378,-0.516 0.414,-0.488C0.449,-0.459 0.472,-0.419 0.482,-0.366L0.397,-0.353C0.389,-0.388 0.374,-0.414 0.354,-0.432C0.333,-0.449 0.308,-0.458 0.279,-0.458C0.235,-0.458 0.199,-0.442 0.171,-0.41C0.143,-0.379 0.129,-0.328 0.129,-0.26C0.129,-0.19 0.143,-0.139 0.169,-0.108C0.196,-0.076 0.231,-0.061 0.274,-0.061C0.308,-0.061 0.337,-0.071 0.36,-0.092C0.383,-0.113 0.398,-0.146 0.404,-0.19Z" style="fill-rule:nonzero;"/>
                </g>
                <g transform="matrix(50,0,0,50,1869.2,88.217)">
                    <path d="M0.404,-0.064C0.372,-0.036 0.34,-0.017 0.31,-0.005C0.28,0.006 0.248,0.012 0.213,0.012C0.156,0.012 0.113,-0.002 0.082,-0.03C0.051,-0.058 0.036,-0.093 0.036,-0.137C0.036,-0.162 0.042,-0.185 0.053,-0.206C0.065,-0.227 0.08,-0.244 0.099,-0.257C0.118,-0.27 0.139,-0.279 0.162,-0.286C0.179,-0.29 0.205,-0.295 0.24,-0.299C0.311,-0.307 0.363,-0.317 0.397,-0.329C0.397,-0.341 0.397,-0.349 0.397,-0.352C0.397,-0.388 0.389,-0.413 0.373,-0.428C0.35,-0.448 0.317,-0.458 0.272,-0.458C0.231,-0.458 0.201,-0.45 0.181,-0.436C0.161,-0.421 0.147,-0.396 0.137,-0.359L0.051,-0.371C0.059,-0.407 0.072,-0.437 0.09,-0.46C0.108,-0.482 0.134,-0.5 0.167,-0.512C0.201,-0.524 0.241,-0.53 0.285,-0.53C0.329,-0.53 0.365,-0.525 0.393,-0.515C0.421,-0.504 0.441,-0.491 0.454,-0.475C0.467,-0.46 0.476,-0.44 0.481,-0.416C0.484,-0.401 0.486,-0.374 0.486,-0.334L0.486,-0.217C0.486,-0.136 0.488,-0.084 0.491,-0.062C0.495,-0.041 0.503,-0.02 0.514,-0L0.422,-0C0.413,-0.018 0.407,-0.04 0.404,-0.064ZM0.397,-0.26C0.365,-0.247 0.317,-0.236 0.253,-0.227C0.217,-0.222 0.192,-0.216 0.177,-0.209C0.162,-0.203 0.15,-0.193 0.142,-0.181C0.134,-0.168 0.13,-0.154 0.13,-0.139C0.13,-0.116 0.139,-0.096 0.156,-0.081C0.174,-0.065 0.2,-0.057 0.234,-0.057C0.268,-0.057 0.298,-0.065 0.325,-0.079C0.351,-0.094 0.37,-0.114 0.383,-0.14C0.392,-0.16 0.397,-0.189 0.397,-0.228L0.397,-0.26Z" style="fill-rule:nonzero;"/>
                </g>
                <g transform="matrix(50,0,0,50,1897.01,88.217)">
                    <rect x="0.064" y="-0.716" width="0.088" height="0.716" style="fill-rule:nonzero;"/>
                </g>
                <g transform="matrix(50,0,0,50,1908.11,88.217)">
                    <path d="M0.421,-0.167L0.512,-0.156C0.497,-0.103 0.471,-0.062 0.432,-0.032C0.393,-0.003 0.344,0.012 0.284,0.012C0.208,0.012 0.148,-0.012 0.103,-0.058C0.059,-0.105 0.037,-0.171 0.037,-0.255C0.037,-0.342 0.059,-0.41 0.104,-0.458C0.149,-0.506 0.207,-0.53 0.279,-0.53C0.348,-0.53 0.405,-0.507 0.449,-0.459C0.493,-0.412 0.515,-0.346 0.515,-0.26C0.515,-0.255 0.514,-0.247 0.514,-0.237L0.127,-0.237C0.131,-0.18 0.147,-0.136 0.176,-0.106C0.205,-0.076 0.241,-0.061 0.284,-0.061C0.316,-0.061 0.344,-0.069 0.367,-0.086C0.389,-0.103 0.408,-0.13 0.421,-0.167ZM0.132,-0.309L0.422,-0.309C0.418,-0.353 0.407,-0.385 0.389,-0.407C0.361,-0.441 0.324,-0.458 0.28,-0.458C0.239,-0.458 0.205,-0.444 0.178,-0.417C0.15,-0.39 0.135,-0.354 0.132,-0.309Z" style="fill-rule:nonzero;"/>
                </g>
                <g transform="matrix(50,0,0,50,1935.92,88.217)">
                    <path d="M0.066,-0L0.066,-0.519L0.145,-0.519L0.145,-0.445C0.183,-0.502 0.238,-0.53 0.31,-0.53C0.341,-0.53 0.37,-0.525 0.396,-0.513C0.422,-0.502 0.442,-0.487 0.455,-0.469C0.468,-0.451 0.477,-0.429 0.482,-0.404C0.486,-0.388 0.487,-0.36 0.487,-0.319L0.487,-0L0.399,-0L0.399,-0.315C0.399,-0.351 0.396,-0.378 0.389,-0.396C0.382,-0.413 0.37,-0.428 0.353,-0.438C0.335,-0.449 0.315,-0.454 0.292,-0.454C0.254,-0.454 0.222,-0.442 0.195,-0.418C0.167,-0.395 0.154,-0.35 0.154,-0.283L0.154,-0L0.066,-0Z" style="fill-rule:nonzero;"/>
                </g>
                <g transform="matrix(50,0,0,50,1963.73,88.217)">
                    <path d="M0.402,-0L0.402,-0.065C0.369,-0.014 0.321,0.012 0.257,0.012C0.216,0.012 0.178,0 0.143,-0.022C0.109,-0.045 0.082,-0.077 0.063,-0.118C0.044,-0.159 0.034,-0.206 0.034,-0.259C0.034,-0.311 0.043,-0.358 0.06,-0.4C0.077,-0.442 0.103,-0.474 0.138,-0.497C0.172,-0.519 0.211,-0.53 0.253,-0.53C0.285,-0.53 0.313,-0.524 0.337,-0.51C0.361,-0.497 0.381,-0.48 0.396,-0.459L0.396,-0.716L0.484,-0.716L0.484,-0L0.402,-0ZM0.125,-0.259C0.125,-0.192 0.139,-0.143 0.167,-0.11C0.194,-0.077 0.228,-0.061 0.266,-0.061C0.304,-0.061 0.337,-0.076 0.364,-0.108C0.39,-0.139 0.404,-0.187 0.404,-0.251C0.404,-0.322 0.39,-0.375 0.363,-0.408C0.335,-0.441 0.302,-0.458 0.262,-0.458C0.223,-0.458 0.19,-0.442 0.164,-0.41C0.138,-0.378 0.125,-0.327 0.125,-0.259Z" style="fill-rule:nonzero;"/>
                </g>
                <g transform="matrix(50,0,0,50,1991.54,88.217)">
                    <path d="M0.404,-0.064C0.372,-0.036 0.34,-0.017 0.31,-0.005C0.28,0.006 0.248,0.012 0.213,0.012C0.156,0.012 0.113,-0.002 0.082,-0.03C0.051,-0.058 0.036,-0.093 0.036,-0.137C0.036,-0.162 0.042,-0.185 0.053,-0.206C0.065,-0.227 0.08,-0.244 0.099,-0.257C0.118,-0.27 0.139,-0.279 0.162,-0.286C0.179,-0.29 0.205,-0.295 0.24,-0.299C0.311,-0.307 0.363,-0.317 0.397,-0.329C0.397,-0.341 0.397,-0.349 0.397,-0.352C0.397,-0.388 0.389,-0.413 0.373,-0.428C0.35,-0.448 0.317,-0.458 0.272,-0.458C0.231,-0.458 0.201,-0.45 0.181,-0.436C0.161,-0.421 0.147,-0.396 0.137,-0.359L0.051,-0.371C0.059,-0.407 0.072,-0.437 0.09,-0.46C0.108,-0.482 0.134,-0.5 0.167,-0.512C0.201,-0.524 0.241,-0.53 0.285,-0.53C0.329,-0.53 0.365,-0.525 0.393,-0.515C0.421,-0.504 0.441,-0.491 0.454,-0.475C0.467,-0.46 0.476,-0.44 0.481,-0.416C0.484,-0.401 0.486,-0.374 0.486,-0.334L0.486,-0.217C0.486,-0.136 0.488,-0.084 0.491,-0.062C0.495,-0.041 0.503,-0.02 0.514,-0L0.422,-0C0.413,-0.018 0.407,-0.04 0.404,-0.064ZM0.397,-0.26C0.365,-0.247 0.317,-0.236 0.253,-0.227C0.217,-0.222 0.192,-0.216 0.177,-0.209C0.162,-0.203 0.15,-0.193 0.142,-0.181C0.134,-0.168 0.13,-0.154 0.13,-0.139C0.13,-0.116 0.139,-0.096 0.156,-0.081C0.174,-0.065 0.2,-0.057 0.234,-0.057C0.268,-0.057 0.298,-0.065 0.325,-0.079C0.351,-0.094 0.37,-0.114 0.383,-0.14C0.392,-0.16 0.397,-0.189 0.397,-0.228L0.397,-0.26Z" style="fill-rule:nonzero;"/>
                </g>
                <g transform="matrix(50,0,0,50,2019.34,88.217)">
                    <path d="M0.065,-0L0.065,-0.519L0.144,-0.519L0.144,-0.44C0.164,-0.477 0.183,-0.501 0.2,-0.513C0.217,-0.524 0.236,-0.53 0.256,-0.53C0.286,-0.53 0.316,-0.521 0.347,-0.502L0.316,-0.42C0.295,-0.433 0.273,-0.439 0.252,-0.439C0.233,-0.439 0.215,-0.434 0.2,-0.422C0.185,-0.411 0.174,-0.395 0.167,-0.374C0.158,-0.343 0.153,-0.309 0.153,-0.271L0.153,-0L0.065,-0Z" style="fill-rule:nonzero;"/>
                </g>
            </g>
        </g>
    </g>
    <defs>
        <linearGradient id="_Linear1" x1="0" y1="0" x2="1" y2="0" gradientUnits="userSpaceOnUse" gradientTransform="matrix(-1.19181e-13,194.059,-197.026,-1.17387e-13,867.518,0)"><stop offset="0" style="stop-color:rgb(229,131,45);stop-opacity:1"/><stop offset="0.15" style="stop-color:rgb(242,190,146);stop-opacity:1"/><stop offset="0.33" style="stop-color:rgb(252,238,227);stop-opacity:1"/><stop offset="1" style="stop-color:white;stop-opacity:1"/></linearGradient>
    </defs>
</svg>
